<svg width="211" height="46" viewBox="0 0 211 46" fill="none" xmlns="http://www.w3.org/2000/svg">
<path d="M0.975113 44.9264C0.834501 44.9254 0.695667 44.8949 0.567631 44.8369C0.451738 44.7827 0.347654 44.7063 0.261372 44.612C0.175091 44.5177 0.108289 44.4073 0.0647693 44.2872C0.0212496 44.167 0.00186503 44.0395 0.00774067 43.9119C0.0136163 43.7843 0.0446409 43.6591 0.0990163 43.5435L8.52982 25.4928C8.61599 25.3081 8.74015 25.1436 8.8942 25.01C9.04826 24.8763 9.22879 24.7765 9.42403 24.717C9.61927 24.6575 9.82486 24.6398 10.0274 24.6648C10.23 24.6899 10.425 24.7572 10.5998 24.8624L38.1986 41.4733L34.4457 33.4322L11.1132 23.508C10.9338 23.4318 10.7715 23.3207 10.6357 23.181C10.4999 23.0413 10.3935 22.8759 10.3227 22.6945C10.1851 22.3258 10.1998 21.9177 10.3635 21.5598L13.2159 15.4304C13.3055 15.2382 13.4362 15.068 13.5987 14.9317C13.7613 14.7954 13.9517 14.6962 14.1568 14.6412C14.3618 14.5861 14.5764 14.5765 14.7856 14.6131C14.9947 14.6497 15.1933 14.7315 15.3674 14.8528L30.7335 25.5254L28.0604 19.7824L15.7586 13.2747C15.4296 13.1002 15.1805 12.806 15.0629 12.4531C14.9453 12.1003 14.9683 11.7158 15.127 11.3794L19.3852 2.26453C19.5007 2.0126 19.6869 1.79943 19.9212 1.65076C20.1554 1.50209 20.4278 1.42427 20.7054 1.42667C20.9823 1.42505 21.2538 1.50325 21.4873 1.65188C21.7207 1.8005 21.9062 2.01323 22.0216 2.26453L27.653 14.3159C27.7539 14.5489 27.7595 14.8121 27.6686 15.0491C27.5778 15.2862 27.3976 15.4784 27.1667 15.5846C26.9357 15.6909 26.6723 15.7027 26.4327 15.6176C26.1931 15.5326 25.9963 15.3573 25.8845 15.1294L20.7258 4.03379L17.1114 11.7617L29.1443 18.1392C29.4236 18.2861 29.647 18.5204 29.78 18.8062L33.3088 26.3592C33.4449 26.6488 33.4813 26.9752 33.4124 27.2877C33.3436 27.6001 33.1733 27.8811 32.928 28.087C32.6827 28.2929 32.3761 28.4121 32.0559 28.4263C31.7357 28.4404 31.4198 28.3486 31.1573 28.1651L14.7684 16.7766L12.3683 21.9136L35.5174 31.8053C35.7541 31.8973 35.9466 32.0763 36.0552 32.3056L40.6476 42.1403C40.7801 42.4224 40.8181 42.7396 40.7561 43.0449C40.6941 43.3503 40.5354 43.6277 40.3033 43.8361C40.0712 44.0444 39.7782 44.1728 39.4674 44.2022C39.1566 44.2315 38.8447 44.1603 38.5776 43.999L10.0538 26.8351L1.85934 44.3651C1.78129 44.5334 1.65647 44.6757 1.49971 44.7752C1.34296 44.8747 1.16088 44.9272 0.975113 44.9264ZM75.2958 27.8438H59.7422L56.7757 35.0103H48.842L63.7722 1.57308H71.4165L86.3956 35.0103H78.2459L75.2958 27.8438ZM72.8509 21.9706L67.5536 9.17079L62.2563 21.9706H72.8509ZM89.8836 1.57308H97.6258V35.0103H89.8836V1.57308ZM112.352 33.3631C109.653 31.9462 107.397 29.8141 105.832 27.2011C104.278 24.4881 103.461 21.417 103.461 18.2917C103.461 15.1665 104.278 12.0954 105.832 9.38229C107.399 6.77113 109.655 4.63963 112.352 3.22033C115.219 1.71341 118.419 0.949792 121.659 0.999604C124.358 0.959654 127.035 1.47757 129.523 2.52077C131.813 3.50024 133.838 5.00692 135.432 6.91751L130.457 11.5014C129.438 10.2585 128.152 9.26091 126.693 8.58279C125.235 7.90466 123.643 7.56346 122.034 7.58456C120.096 7.55366 118.184 8.02599 116.484 8.95523C114.882 9.83555 113.562 11.1514 112.678 12.75C111.781 14.4601 111.313 16.3615 111.313 18.2917C111.313 20.2219 111.781 22.1233 112.678 23.8334C113.563 25.4324 114.882 26.7492 116.484 27.6322C118.185 28.5574 120.097 29.0256 122.034 28.9907C125.383 28.9907 128.191 27.6689 130.457 25.0251L135.432 29.613C133.851 31.5482 131.824 33.0722 129.523 34.0545C127.025 35.1022 124.336 35.6229 121.626 35.5838C118.399 35.632 115.211 34.8683 112.356 33.3631H112.352ZM146.756 33.3387C144.044 31.9167 141.777 29.7762 140.204 27.1523C138.65 24.4569 137.832 21.4015 137.832 18.2917C137.832 15.1819 138.65 12.1265 140.204 9.4311C141.777 6.8072 144.044 4.66675 146.756 3.24476C149.666 1.76901 152.884 0.999828 156.148 0.999828C159.413 0.999828 162.631 1.76901 165.541 3.24476C168.274 4.69913 170.559 6.86763 172.153 9.51836C173.747 12.1691 174.588 15.2024 174.588 18.2938C174.588 21.3851 173.747 24.4184 172.153 27.0691C170.559 29.7199 168.274 31.8884 165.541 33.3427C162.631 34.8185 159.413 35.5877 156.148 35.5877C152.884 35.5877 149.666 34.8185 146.756 33.3427V33.3387ZM161.519 27.6445C163.1 26.7502 164.401 25.4349 165.276 23.8456C166.173 22.1355 166.641 20.2341 166.641 18.3039C166.641 16.3737 166.173 14.4723 165.276 12.7622C164.401 11.1736 163.1 9.85959 161.519 8.96742C159.875 8.07318 158.033 7.60464 156.161 7.60464C154.288 7.60464 152.446 8.07318 150.802 8.96742C149.221 9.85959 147.92 11.1736 147.045 12.7622C146.148 14.4723 145.68 16.3737 145.68 18.3039C145.68 20.2341 146.148 22.1355 147.045 23.8456C147.921 25.4349 149.221 26.7502 150.802 27.6445C152.447 28.5358 154.289 29.0028 156.161 29.0028C158.032 29.0028 159.874 28.5358 161.519 27.6445ZM201.668 35.0225L195.214 25.7044H188.083V35.0185H180.341V1.57308H194.839C197.496 1.51109 200.135 2.01584 202.581 3.05358C204.67 3.92294 206.442 5.40967 207.659 7.31394C208.876 9.21821 209.48 11.4488 209.39 13.7058C209.483 15.9644 208.87 18.1959 207.635 20.0908C206.401 21.9858 204.606 23.4501 202.499 24.2808L210.013 35.0266L201.668 35.0225ZM199.708 9.39855C198.494 8.398 196.728 7.89639 194.411 7.89368H188.095V19.5505H194.411C196.742 19.5505 198.508 19.0408 199.708 18.0212C200.909 17.0017 201.515 15.5686 201.526 13.7221C201.528 11.8322 200.924 10.3856 199.712 9.38229L199.708 9.39855ZM52.9495 43.7225H50.3416L49.8281 44.9427H48.842L51.1891 39.7406H52.1426L54.4938 44.9427H53.4833L52.9495 43.7225ZM52.6275 42.966L51.6455 40.6923L50.6716 42.966H52.6275ZM58.5564 44.9264L57.4929 43.4052H57.2891H56.1156V44.9183H55.1458V39.7243H57.2891C57.6945 39.7142 58.0973 39.7905 58.4708 39.948C58.7847 40.081 59.0525 40.303 59.241 40.5866C59.4223 40.889 59.518 41.2347 59.518 41.5871C59.518 41.9395 59.4223 42.2853 59.241 42.5877C59.0399 42.8757 58.7556 43.0957 58.426 43.2181L59.624 44.9264H58.5564ZM58.2141 40.8103C57.9344 40.6123 57.5945 40.5173 57.2525 40.5418H56.1237V42.6162H57.2525C57.5952 42.6416 57.9359 42.545 58.2141 42.3436C58.3183 42.2449 58.4013 42.1259 58.458 41.9941C58.5146 41.8623 58.5439 41.7204 58.5439 41.577C58.5439 41.4335 58.5146 41.2916 58.458 41.1598C58.4013 41.028 58.3183 40.9091 58.2141 40.8103ZM61.5799 40.5418H59.844V39.7284H64.2693V40.5418H62.5416V44.9264H61.5718L61.5799 40.5418ZM65.0068 39.7284H65.9563V44.9305H64.9865L65.0068 39.7284ZM68.3482 40.5418V42.1281H70.8461V42.9416H68.3278V44.9305H67.3621V39.7243H71.168V40.5378L68.3482 40.5418ZM72.1256 39.7284H73.0954V44.9305H72.1256V39.7284ZM75.4873 44.662C75.073 44.4408 74.7277 44.1101 74.489 43.7062C74.2466 43.289 74.1226 42.8137 74.1304 42.3315C74.1199 41.855 74.242 41.385 74.4829 40.9736C74.7239 40.5622 75.0744 40.2255 75.4954 40.0009C75.8942 39.7964 76.3322 39.6797 76.78 39.6587C77.2278 39.6376 77.6749 39.7127 78.0911 39.8789C78.4362 40.0199 78.7422 40.2417 78.9835 40.5256L78.36 41.1113C78.1852 40.9157 77.9703 40.76 77.7298 40.6547C77.4893 40.5495 77.229 40.4971 76.9665 40.5012C76.6308 40.4951 76.2993 40.5764 76.0048 40.7371C75.7283 40.8883 75.4996 41.1137 75.3447 41.3878C75.187 41.6775 75.1045 42.0019 75.1045 42.3315C75.1045 42.6611 75.187 42.9854 75.3447 43.2751C75.5008 43.5483 75.7292 43.7734 76.0048 43.9258C76.3005 44.0832 76.6314 44.163 76.9665 44.1577C77.2294 44.1618 77.4901 44.109 77.7307 44.003C77.9712 43.897 78.1859 43.7402 78.36 43.5435L78.9835 44.1373C78.7393 44.4197 78.4323 44.6412 78.087 44.784C77.7145 44.9353 77.3156 45.0114 76.9135 45.0077C76.4135 45.0137 75.9201 44.8933 75.4791 44.6579L75.4873 44.662ZM79.9166 39.7284H80.8824V44.9305H79.9166V39.7284ZM85.6703 43.7265H83.0705L82.5571 44.9467H81.5588L83.8855 39.7243H84.839L87.1942 44.9264H86.1796L85.6703 43.7265ZM85.3524 42.97L84.3704 40.6964L83.3924 42.97H85.3524ZM87.8707 39.7162H88.8364V44.1007H91.5625V44.9142H87.8707V39.7162ZM94.3904 39.7162H95.3561V44.9183H94.3904V39.7162ZM101.395 39.7162V44.9183H100.58L97.7032 41.396V44.9183H96.7456V39.7243H97.5402L100.417 43.2466V39.7243L101.395 39.7162ZM103.84 40.5297H102.112V39.7162H106.533V40.5297H104.806V44.9142H103.852L103.84 40.5297ZM111.175 44.1048V44.9183H107.263V39.7243H111.069V40.5378H108.216V41.8922H110.735V42.7056H108.216V44.1373L111.175 44.1048ZM112.254 39.7121H113.224V44.0967H115.95V44.9101H112.258L112.254 39.7121ZM116.712 39.7121H117.707V44.0967H120.433V44.9101H116.737L116.712 39.7121ZM121.174 39.7121H122.144V44.9142H121.174V39.7121ZM127.111 42.2542H128.024V44.3285C127.743 44.5511 127.422 44.7182 127.079 44.8206C126.723 44.9343 126.352 44.992 125.978 44.9915C125.478 44.9978 124.983 44.8789 124.54 44.6458C124.123 44.4247 123.775 44.0941 123.534 43.6899C123.296 43.2706 123.171 42.797 123.171 42.3152C123.171 41.8334 123.296 41.3597 123.534 40.9405C123.777 40.5361 124.126 40.2056 124.544 39.9846C124.989 39.7495 125.487 39.6305 125.991 39.6389C126.399 39.634 126.804 39.7071 127.185 39.8545C127.531 39.9899 127.84 40.2061 128.085 40.4849L127.474 41.0787C127.287 40.8871 127.063 40.7356 126.816 40.6335C126.569 40.5314 126.303 40.4808 126.035 40.4849C125.695 40.4795 125.359 40.5591 125.057 40.7167C124.778 40.8649 124.546 41.0892 124.389 41.3634C124.223 41.6528 124.138 41.9817 124.145 42.3152C124.14 42.6434 124.224 42.9667 124.389 43.2507C124.547 43.5263 124.778 43.753 125.057 43.9055C125.356 44.0667 125.692 44.148 126.031 44.1414C126.406 44.1482 126.775 44.057 127.103 43.877L127.111 42.2542ZM133.223 44.1048V44.9183H129.312V39.7243H133.117V40.5378H130.265V41.8922H132.783V42.7056H130.269V44.1373L133.223 44.1048ZM138.928 39.7121V44.9142H138.113L135.236 41.3919V44.9142H134.279V39.7243H135.073L137.95 43.2466V39.7243L138.928 39.7121ZM141.316 44.6458C140.902 44.4245 140.556 44.0938 140.318 43.6899C140.074 43.273 139.949 42.7978 139.955 42.3152C139.946 41.8386 140.07 41.3689 140.311 40.9577C140.553 40.5465 140.903 40.2098 141.324 39.9846C141.723 39.7801 142.161 39.6634 142.609 39.6424C143.057 39.6213 143.504 39.6964 143.92 39.8626C144.264 40.0048 144.57 40.2264 144.812 40.5093L144.189 41.095C144.014 40.8995 143.799 40.7438 143.559 40.6385C143.318 40.5332 143.058 40.4808 142.795 40.4849C142.46 40.4788 142.128 40.5601 141.834 40.7208C141.556 40.872 141.326 41.0973 141.169 41.3716C141.014 41.662 140.933 41.9861 140.933 42.3152C140.933 42.6443 141.014 42.9684 141.169 43.2588C141.327 43.5321 141.557 43.7572 141.834 43.9096C142.129 44.067 142.46 44.1468 142.795 44.1414C143.058 44.1455 143.319 44.0927 143.559 43.9867C143.8 43.8807 144.015 43.724 144.189 43.5272L144.812 44.1211C144.567 44.4022 144.26 44.6234 143.916 44.7678C143.543 44.9191 143.144 44.9951 142.742 44.9915C142.245 45.0017 141.753 44.887 141.312 44.6579L141.316 44.6458ZM149.653 44.1048V44.9183H145.745V39.7243H149.547V40.5378H146.695V41.8922H149.213V42.7056H146.695V44.1373L149.653 44.1048ZM153.777 44.6458C153.362 44.4255 153.016 44.0946 152.778 43.6899C152.535 43.273 152.41 42.7978 152.416 42.3152C152.408 41.8319 152.535 41.356 152.783 40.9405C153.021 40.5365 153.367 40.2059 153.781 39.9846C154.18 39.7801 154.618 39.6634 155.065 39.6424C155.513 39.6213 155.96 39.6964 156.377 39.8626C156.723 40.0035 157.03 40.2253 157.273 40.5093L156.646 41.095C156.471 40.8988 156.256 40.7427 156.016 40.6373C155.775 40.532 155.515 40.48 155.252 40.4849C154.918 40.4789 154.588 40.5602 154.294 40.7208C154.016 40.8707 153.786 41.0964 153.63 41.3716C153.473 41.6612 153.39 41.9856 153.39 42.3152C153.39 42.6448 153.473 42.9692 153.63 43.2588C153.787 43.5331 154.017 43.7584 154.294 43.9096C154.589 44.067 154.918 44.1468 155.252 44.1414C155.515 44.1463 155.776 44.0939 156.017 43.9879C156.257 43.8818 156.472 43.7246 156.646 43.5272L157.273 44.1211C157.027 44.4035 156.719 44.625 156.372 44.7678C156.001 44.9187 155.604 44.9947 155.203 44.9915C154.706 45.0022 154.214 44.8875 153.773 44.6579L153.777 44.6458ZM159.074 44.6458C158.656 44.4244 158.308 44.0923 158.068 43.6859C157.827 43.2689 157.701 42.7962 157.701 42.3152C157.701 41.8342 157.827 41.3615 158.068 40.9445C158.308 40.5381 158.656 40.206 159.074 39.9846C159.516 39.7606 160.005 39.6439 160.5 39.6439C160.996 39.6439 161.485 39.7606 161.926 39.9846C162.343 40.2057 162.691 40.5362 162.933 40.9405C163.171 41.3597 163.296 41.8334 163.296 42.3152C163.296 42.797 163.171 43.2706 162.933 43.6899C162.691 44.0941 162.343 44.4247 161.926 44.6458C161.485 44.8698 160.996 44.9865 160.5 44.9865C160.005 44.9865 159.516 44.8698 159.074 44.6458ZM161.45 43.9096C161.723 43.7553 161.949 43.5287 162.102 43.2547C162.259 42.9666 162.342 42.6435 162.342 42.3152C162.342 41.9869 162.259 41.6638 162.102 41.3757C161.95 41.1009 161.724 40.874 161.45 40.7208C161.161 40.5659 160.838 40.4849 160.51 40.4849C160.183 40.4849 159.86 40.5659 159.571 40.7208C159.296 40.8738 159.068 41.1006 158.915 41.3757C158.76 41.6646 158.679 41.9874 158.679 42.3152C158.679 42.643 158.76 42.9658 158.915 43.2547C159.07 43.5289 159.297 43.7554 159.571 43.9096C159.861 44.0617 160.183 44.1412 160.51 44.1412C160.838 44.1412 161.16 44.0617 161.45 43.9096ZM167.758 44.9142L166.69 43.393H166.49H165.313V44.9061H164.343V39.7243H166.49C166.896 39.7142 167.298 39.7905 167.672 39.948C167.986 40.081 168.254 40.303 168.442 40.5866C168.622 40.8894 168.717 41.235 168.717 41.5871C168.717 41.9393 168.622 42.2849 168.442 42.5877C168.242 42.8767 167.957 43.0968 167.627 43.2181L168.825 44.9264L167.758 44.9142ZM167.407 40.7981C167.127 40.6013 166.787 40.5065 166.445 40.5297H165.313V42.604H166.445C166.788 42.628 167.128 42.5316 167.407 42.3315C167.51 42.2321 167.592 42.113 167.648 41.9812C167.704 41.8495 167.733 41.7079 167.733 41.5648C167.733 41.4217 167.704 41.28 167.648 41.1483C167.592 41.0166 167.51 40.8975 167.407 40.7981ZM173.112 39.9358C173.428 40.0675 173.697 40.2897 173.886 40.5744C174.06 40.8743 174.151 41.2144 174.151 41.5607C174.151 41.907 174.06 42.2471 173.886 42.547C173.702 42.8332 173.437 43.0583 173.124 43.1937C172.751 43.3478 172.35 43.4226 171.946 43.4133H170.769V44.9142H169.799V39.7243H171.946C172.35 39.7122 172.751 39.7857 173.124 39.9399L173.112 39.9358ZM172.851 42.3274C172.961 42.2338 173.048 42.1161 173.104 41.9834C173.161 41.8507 173.186 41.7067 173.177 41.5627C173.185 41.4189 173.16 41.2751 173.103 41.1425C173.047 41.0099 172.96 40.892 172.851 40.7981C172.571 40.6013 172.231 40.5065 171.889 40.5297H170.757V42.5958H171.902C172.242 42.6225 172.581 42.5321 172.863 42.3396L172.851 42.3274ZM176.192 44.6458C175.775 44.4244 175.426 44.0923 175.186 43.6859C174.948 43.268 174.824 42.7957 174.824 42.3152C174.824 41.8347 174.948 41.3624 175.186 40.9445C175.426 40.5381 175.775 40.206 176.192 39.9846C176.638 39.7572 177.131 39.6387 177.631 39.6387C178.131 39.6387 178.624 39.7572 179.069 39.9846C179.485 40.2058 179.831 40.5364 180.072 40.9405C180.312 41.359 180.438 41.8329 180.438 42.3152C180.438 42.7975 180.312 43.2714 180.072 43.6899C179.831 44.094 179.485 44.4246 179.069 44.6458C178.624 44.8731 178.131 44.9917 177.631 44.9917C177.131 44.9917 176.638 44.8731 176.192 44.6458ZM178.568 43.9096C178.843 43.7554 179.07 43.5289 179.224 43.2547C179.379 42.9658 179.46 42.643 179.46 42.3152C179.46 41.9874 179.379 41.6646 179.224 41.3757C179.071 41.1006 178.844 40.8738 178.568 40.7208C178.28 40.5659 177.958 40.4849 177.631 40.4849C177.304 40.4849 176.982 40.5659 176.694 40.7208C176.417 40.8727 176.19 41.0998 176.038 41.3757C175.88 41.6638 175.797 41.9869 175.797 42.3152C175.797 42.6435 175.88 42.9666 176.038 43.2547C176.191 43.5298 176.418 43.7566 176.694 43.9096C176.983 44.0617 177.304 44.1412 177.631 44.1412C177.957 44.1412 178.279 44.0617 178.568 43.9096ZM184.876 44.9142L183.812 43.393H183.609H182.435V44.9061H181.465V39.7243H183.609C184.014 39.7142 184.417 39.7905 184.79 39.948C185.104 40.081 185.372 40.303 185.56 40.5866C185.742 40.889 185.838 41.2347 185.838 41.5871C185.838 41.9395 185.742 42.2853 185.56 42.5877C185.36 42.8767 185.076 43.0968 184.745 43.2181L185.943 44.9264L184.876 44.9142ZM184.525 40.7981C184.247 40.6006 183.909 40.5058 183.568 40.5297H182.435V42.604H183.568C183.909 42.6287 184.248 42.5322 184.525 42.3315C184.63 42.2327 184.713 42.1138 184.769 41.982C184.826 41.8502 184.855 41.7082 184.855 41.5648C184.855 41.4213 184.826 41.2794 184.769 41.1476C184.713 41.0158 184.63 40.8969 184.525 40.7981ZM190.291 43.7103H187.683L187.17 44.9305H186.172L188.519 39.7284H189.472L191.823 44.9305H190.813L190.291 43.7103ZM189.969 42.9537L188.987 40.6801L188.014 42.9537H189.969ZM193.286 40.5134H191.555V39.6999H195.98V40.5134H194.252V44.8979H193.286V40.5134ZM196.709 39.6999H197.679V44.902H196.709V39.6999ZM200.083 44.6335C199.665 44.4122 199.317 44.08 199.077 43.6737C198.839 43.2557 198.714 42.7835 198.714 42.303C198.714 41.8225 198.839 41.3502 199.077 40.9323C199.317 40.5259 199.665 40.1938 200.083 39.9724C200.525 39.7484 201.014 39.6317 201.509 39.6317C202.005 39.6317 202.494 39.7484 202.936 39.9724C203.353 40.1923 203.701 40.5231 203.942 40.9282C204.182 41.3467 204.309 41.8207 204.309 42.303C204.309 42.7853 204.182 43.2592 203.942 43.6777C203.701 44.0829 203.353 44.4137 202.936 44.6335C202.494 44.8575 202.005 44.9743 201.509 44.9743C201.014 44.9743 200.525 44.8575 200.083 44.6335ZM202.459 43.8974C202.733 43.7432 202.96 43.5167 203.115 43.2425C203.27 42.9536 203.351 42.6308 203.351 42.303C203.351 41.9751 203.27 41.6524 203.115 41.3634C202.956 41.1054 202.731 40.8947 202.463 40.7533C202.174 40.5985 201.851 40.5174 201.524 40.5174C201.196 40.5174 200.873 40.5985 200.584 40.7533C200.31 40.9066 200.084 41.1334 199.932 41.4082C199.775 41.6963 199.692 42.0194 199.692 42.3477C199.692 42.676 199.775 42.9991 199.932 43.2873C200.085 43.5613 200.311 43.7879 200.584 43.9421C200.874 44.0942 201.196 44.1737 201.524 44.1737C201.851 44.1737 202.173 44.0942 202.463 43.9421L202.459 43.8974ZM209.989 39.6999V44.902H209.174L206.322 41.3797V44.902H205.36V39.7243H206.175L209.048 43.2466V39.7243L209.989 39.6999Z" fill="#0A307C"/>
</svg>
