<?xml version="1.0" encoding="utf-8"?>
<!-- Generator: Adobe Illustrator 25.4.1, SVG Export Plug-In . SVG Version: 6.00 Build 0)  -->
<svg version="1.1" id="Layer_1" xmlns="http://www.w3.org/2000/svg" xmlns:xlink="http://www.w3.org/1999/xlink" x="0px" y="0px"
	 viewBox="0 0 26 26" enable-background="new 0 0 26 26" xml:space="preserve">
<path fill="#4267B2" d="M20.8,0H5.2C3.82,0,2.5,0.55,1.52,1.52C0.55,2.5,0,3.82,0,5.2v15.6c0,1.38,0.55,2.7,1.52,3.68
	C2.5,25.45,3.82,26,5.2,26h15.6c1.38,0,2.7-0.55,3.68-1.52C25.45,23.5,26,22.18,26,20.8V5.2c0-1.38-0.55-2.7-1.52-3.68
	C23.5,0.55,22.18,0,20.8,0L20.8,0z M17.55,6.92h-1.66c-1.3,0-1.55,0.65-1.55,1.59v2.22h2.94l-0.38,3.24h-2.6v8.14h-3.21v-8.14h-2.6
	v-3.24h2.6v-2.6c-0.05-0.55,0.02-1.11,0.21-1.63c0.18-0.52,0.48-1,0.86-1.4c0.38-0.4,0.85-0.71,1.36-0.92
	c0.51-0.21,1.06-0.3,1.62-0.28c0.81,0,1.62,0.04,2.42,0.13V6.92z"/>
</svg>
