<?xml version="1.0" encoding="utf-8"?>
<!-- Generator: Adobe Illustrator 25.4.1, SVG Export Plug-In . SVG Version: 6.00 Build 0)  -->
<svg version="1.1" id="Layer_1" xmlns="http://www.w3.org/2000/svg" xmlns:xlink="http://www.w3.org/1999/xlink" x="0px" y="0px"
	 viewBox="0 0 1920 600" enable-background="new 0 0 1920 600" xml:space="preserve">
<g>
	<rect x="0" fill="#00A8EE" width="1920" height="600"/>
	<path opacity="0.2" fill="#FFFFFF" enable-background="new    " d="M516.33,598.99c-17.73-41.92-43.11-79.56-75.43-111.89
		c-32.32-32.32-69.97-57.7-111.88-75.43C285.61,393.31,239.51,384,192,384c-47.52,0-93.62,9.31-137.02,27.67
		C35.71,419.82,17.35,429.58,0,440.89v24.41C54.24,426.71,120.52,404,192,404c134.63,0,250.8,80.56,302.85,196h21.9
		C516.61,599.66,516.47,599.33,516.33,598.99z"/>
	<path opacity="0.2" fill="#FFFFFF" enable-background="new    " d="M1586.98,133.51c0.83,1.11,0.6,2.67-0.51,3.5
		c-1.1,0.82-2.67,0.59-3.5-0.51c-29.83-40.04-46.95-86.94-49.98-136.5h5.01C1541.02,48.48,1557.8,94.34,1586.98,133.51z"/>
	<path opacity="0.2" fill="#FFFFFF" enable-background="new    " d="M1920,196.83v6.05c-39.42,23.87-84.73,36.62-132,36.62
		c-57.74,0-112.22-18.79-157.54-54.33c-1.09-0.86-1.28-2.43-0.43-3.51c0.85-1.09,2.42-1.28,3.51-0.43
		c44.44,34.85,97.85,53.27,154.46,53.27C1836.4,234.5,1881.65,220.7,1920,196.83z"/>
	<path opacity="0.2" fill="#FFFFFF" enable-background="new    " d="M1608.5,178c-10.2,0-18.5-8.3-18.5-18.5s8.3-18.5,18.5-18.5
		s18.5,8.3,18.5,18.5S1618.7,178,1608.5,178z M1608.5,143c-9.1,0-16.5,7.4-16.5,16.5s7.4,16.5,16.5,16.5s16.5-7.4,16.5-16.5
		S1617.6,143,1608.5,143z"/>
	<circle opacity="0.2" fill="#FFFFFF" enable-background="new    " cx="1608.5" cy="159.5" r="10.5"/>
	<path opacity="0.2" fill="#FFFFFF" enable-background="new    " d="M1674,319.5c-0.83,0-1.5-0.67-1.5-1.5v-5.5h-5.5
		c-0.83,0-1.5-0.67-1.5-1.5s0.67-1.5,1.5-1.5h5.5V304c0-0.83,0.67-1.5,1.5-1.5s1.5,0.67,1.5,1.5v5.5h5.5c0.83,0,1.5,0.67,1.5,1.5
		s-0.67,1.5-1.5,1.5h-5.5v5.5C1675.5,318.83,1674.83,319.5,1674,319.5z"/>
	<path opacity="0.2" fill="#FFFFFF" enable-background="new    " d="M248,115.5c-0.83,0-1.5-0.67-1.5-1.5v-5.5H241
		c-0.83,0-1.5-0.67-1.5-1.5s0.67-1.5,1.5-1.5h5.5V100c0-0.83,0.67-1.5,1.5-1.5s1.5,0.67,1.5,1.5v5.5h5.5c0.83,0,1.5,0.67,1.5,1.5
		s-0.67,1.5-1.5,1.5h-5.5v5.5C249.5,114.83,248.83,115.5,248,115.5z"/>
	<path opacity="0.2" fill="#FFFFFF" enable-background="new    " d="M1674,355.5c-0.83,0-1.5-0.67-1.5-1.5v-5.5h-5.5
		c-0.83,0-1.5-0.67-1.5-1.5s0.67-1.5,1.5-1.5h5.5V340c0-0.83,0.67-1.5,1.5-1.5s1.5,0.67,1.5,1.5v5.5h5.5c0.83,0,1.5,0.67,1.5,1.5
		s-0.67,1.5-1.5,1.5h-5.5v5.5C1675.5,354.83,1674.83,355.5,1674,355.5z"/>
	<path opacity="0.2" fill="#FFFFFF" enable-background="new    " d="M1674,391.5c-0.83,0-1.5-0.67-1.5-1.5v-5.5h-5.5
		c-0.83,0-1.5-0.67-1.5-1.5s0.67-1.5,1.5-1.5h5.5V376c0-0.83,0.67-1.5,1.5-1.5s1.5,0.67,1.5,1.5v5.5h5.5c0.83,0,1.5,0.67,1.5,1.5
		s-0.67,1.5-1.5,1.5h-5.5v5.5C1675.5,390.83,1674.83,391.5,1674,391.5z"/>
	<g opacity="0.2">
		<path fill="#FFFFFF" d="M263,364c0,2.21-1.79,4-4,4s-4-1.79-4-4s1.79-4,4-4S263,361.79,263,364z"/>
		<path fill="#FFFFFF" d="M263,382c0,2.21-1.79,4-4,4s-4-1.79-4-4s1.79-4,4-4S263,379.79,263,382z"/>
		<path fill="#FFFFFF" d="M263,400c0,2.21-1.79,4-4,4s-4-1.79-4-4s1.79-4,4-4S263,397.79,263,400z"/>
		<path fill="#FFFFFF" d="M263,418c0,2.21-1.79,4-4,4s-4-1.79-4-4s1.79-4,4-4S263,415.79,263,418z"/>
		<path fill="#FFFFFF" d="M263,436c0,2.21-1.79,4-4,4s-4-1.79-4-4s1.79-4,4-4S263,433.79,263,436z"/>
		<path fill="#FFFFFF" d="M263,454c0,2.21-1.79,4-4,4s-4-1.79-4-4s1.79-4,4-4S263,451.79,263,454z"/>
		<path fill="#FFFFFF" d="M281,364c0,2.21-1.79,4-4,4s-4-1.79-4-4s1.79-4,4-4S281,361.79,281,364z"/>
		<path fill="#FFFFFF" d="M281,382c0,2.21-1.79,4-4,4s-4-1.79-4-4s1.79-4,4-4S281,379.79,281,382z"/>
		<path fill="#FFFFFF" d="M281,400c0,2.21-1.79,4-4,4s-4-1.79-4-4s1.79-4,4-4S281,397.79,281,400z"/>
		<path fill="#FFFFFF" d="M281,418c0,2.21-1.79,4-4,4s-4-1.79-4-4s1.79-4,4-4S281,415.79,281,418z"/>
		<path fill="#FFFFFF" d="M281,436c0,2.21-1.79,4-4,4s-4-1.79-4-4s1.79-4,4-4S281,433.79,281,436z"/>
		<path fill="#FFFFFF" d="M281,454c0,2.21-1.79,4-4,4s-4-1.79-4-4s1.79-4,4-4S281,451.79,281,454z"/>
		<path fill="#FFFFFF" d="M299,364c0,2.21-1.79,4-4,4s-4-1.79-4-4s1.79-4,4-4S299,361.79,299,364z"/>
		<path fill="#FFFFFF" d="M299,382c0,2.21-1.79,4-4,4s-4-1.79-4-4s1.79-4,4-4S299,379.79,299,382z"/>
		<path fill="#FFFFFF" d="M299,400c0,2.21-1.79,4-4,4s-4-1.79-4-4s1.79-4,4-4S299,397.79,299,400z"/>
		<path fill="#FFFFFF" d="M299,418c0,2.21-1.79,4-4,4s-4-1.79-4-4s1.79-4,4-4S299,415.79,299,418z"/>
		<path fill="#FFFFFF" d="M299,436c0,2.21-1.79,4-4,4s-4-1.79-4-4s1.79-4,4-4S299,433.79,299,436z"/>
		<path fill="#FFFFFF" d="M299,454c0,2.21-1.79,4-4,4s-4-1.79-4-4s1.79-4,4-4S299,451.79,299,454z"/>
		<path fill="#FFFFFF" d="M317,364c0,2.21-1.79,4-4,4s-4-1.79-4-4s1.79-4,4-4S317,361.79,317,364z"/>
		<path fill="#FFFFFF" d="M317,382c0,2.21-1.79,4-4,4s-4-1.79-4-4s1.79-4,4-4S317,379.79,317,382z"/>
		<path fill="#FFFFFF" d="M317,400c0,2.21-1.79,4-4,4s-4-1.79-4-4s1.79-4,4-4S317,397.79,317,400z"/>
		<path fill="#FFFFFF" d="M317,418c0,2.21-1.79,4-4,4s-4-1.79-4-4s1.79-4,4-4S317,415.79,317,418z"/>
		<path fill="#FFFFFF" d="M317,436c0,2.21-1.79,4-4,4s-4-1.79-4-4s1.79-4,4-4S317,433.79,317,436z"/>
		<path fill="#FFFFFF" d="M317,454c0,2.21-1.79,4-4,4s-4-1.79-4-4s1.79-4,4-4S317,451.79,317,454z"/>
		<path fill="#FFFFFF" d="M335,364c0,2.21-1.79,4-4,4s-4-1.79-4-4s1.79-4,4-4S335,361.79,335,364z"/>
		<path fill="#FFFFFF" d="M335,382c0,2.21-1.79,4-4,4s-4-1.79-4-4s1.79-4,4-4S335,379.79,335,382z"/>
		<path fill="#FFFFFF" d="M335,400c0,2.21-1.79,4-4,4s-4-1.79-4-4s1.79-4,4-4S335,397.79,335,400z"/>
		<path fill="#FFFFFF" d="M335,418c0,2.21-1.79,4-4,4s-4-1.79-4-4s1.79-4,4-4S335,415.79,335,418z"/>
		<path fill="#FFFFFF" d="M335,436c0,2.21-1.79,4-4,4s-4-1.79-4-4s1.79-4,4-4S335,433.79,335,436z"/>
		<path fill="#FFFFFF" d="M335,454c0,2.21-1.79,4-4,4s-4-1.79-4-4s1.79-4,4-4S335,451.79,335,454z"/>
		<path fill="#FFFFFF" d="M353,364c0,2.21-1.79,4-4,4s-4-1.79-4-4s1.79-4,4-4S353,361.79,353,364z"/>
		<path fill="#FFFFFF" d="M353,382c0,2.21-1.79,4-4,4s-4-1.79-4-4s1.79-4,4-4S353,379.79,353,382z"/>
		<path fill="#FFFFFF" d="M353,400c0,2.21-1.79,4-4,4s-4-1.79-4-4s1.79-4,4-4S353,397.79,353,400z"/>
		<path fill="#FFFFFF" d="M353,418c0,2.21-1.79,4-4,4s-4-1.79-4-4s1.79-4,4-4S353,415.79,353,418z"/>
		<path fill="#FFFFFF" d="M353,436c0,2.21-1.79,4-4,4s-4-1.79-4-4s1.79-4,4-4S353,433.79,353,436z"/>
		<path fill="#FFFFFF" d="M353,454c0,2.21-1.79,4-4,4s-4-1.79-4-4s1.79-4,4-4S353,451.79,353,454z"/>
	</g>
	<path fill="#FFFFFF" d="M1321.25,182.89c-6.87,0-14.08-0.3-21.64-0.89c-0.83-0.06-1.44-0.79-1.38-1.61
		c0.06-0.83,0.79-1.44,1.61-1.38c49.91,3.91,84.46-5.21,102.69-27.13c17.54-21.1,20.77-55,9.61-100.85
		c-1.01,5.21-2.36,9.53-4.02,12.9c-0.37,0.74-1.27,1.05-2.01,0.68c-0.74-0.37-1.05-1.27-0.68-2.01c2.23-4.53,3.87-10.98,4.86-19.18
		c0.01-0.09,0.03-0.18,0.05-0.27c0.03-0.12,0.08-0.23,0.14-0.33c0.06-0.11,0.14-0.21,0.22-0.3c0.12-0.12,0.26-0.23,0.42-0.3
		c0.08-0.04,0.17-0.07,0.25-0.1c0.1-0.03,0.2-0.04,0.3-0.05c0.17-0.01,0.36,0.01,0.52,0.06c0.11,0.03,0.22,0.08,0.32,0.13
		c0.11,0.06,0.21,0.14,0.3,0.22c0.07,0.06,0.13,0.14,0.19,0.21l0.25,0.33c2.35,3.16,7.86,10.57,13.45,13.79
		c0.72,0.41,0.96,1.33,0.55,2.05c-0.41,0.72-1.33,0.96-2.05,0.55c-3.75-2.17-7.38-5.92-10.19-9.27
		c11.43,46.9,8.01,81.75-10.18,103.63C1388.76,173.13,1360.69,182.89,1321.25,182.89z"/>
</g>
</svg>
