<svg id="Layer_1" data-name="Layer 1" xmlns="http://www.w3.org/2000/svg" viewBox="0 0 64 64"><defs><style>.cls-1{fill:none;stroke:#00a8ee;stroke-linecap:round;stroke-linejoin:round;stroke-width:2px;}</style></defs><circle class="cls-1" cx="36" cy="36" r="26"/><circle class="cls-1" cx="36" cy="36" r="20"/><circle class="cls-1" cx="36" cy="36" r="2"/><path class="cls-1" d="M32,2h8a2,2,0,0,1,2,2V6a0,0,0,0,1,0,0H30a0,0,0,0,1,0,0V4A2,2,0,0,1,32,2Z"/><line class="cls-1" x1="32" y1="6" x2="32" y2="10"/><line class="cls-1" x1="40" y1="6" x2="40" y2="10"/><line class="cls-1" x1="34" y1="34" x2="30" y2="30"/><line class="cls-1" x1="38" y1="34" x2="46" y2="26"/><line class="cls-1" x1="18" y1="12" x2="6" y2="12"/><line class="cls-1" x1="10" y1="24" x2="4" y2="24"/><line class="cls-1" x1="18" y1="60" x2="6" y2="60"/><line class="cls-1" x1="10" y1="48" x2="4" y2="48"/><line class="cls-1" x1="2" y1="38" x2="6" y2="38"/></svg>