<svg width="26" height="20" viewBox="0 0 26 20" fill="none" xmlns="http://www.w3.org/2000/svg">
<path d="M24.5455 0H0.909091C0.40625 0 0 0.40625 0 0.909091V19.0909C0 19.5938 0.40625 20 0.909091 20H24.5455C25.0483 20 25.4545 19.5938 25.4545 19.0909V0.909091C25.4545 0.40625 25.0483 0 24.5455 0ZM23.4091 3.14773V17.9545H2.04545V3.14773L1.26136 2.53693L2.37784 1.10227L3.59375 2.0483H21.8636L23.0795 1.10227L24.196 2.53693L23.4091 3.14773ZM21.8636 2.04545L12.7273 9.14773L3.59091 2.04545L2.375 1.09943L1.25852 2.53409L2.04261 3.14489L11.7472 10.6903C12.0262 10.9072 12.3696 11.0249 12.723 11.0249C13.0764 11.0249 13.4198 10.9072 13.6989 10.6903L23.4091 3.14773L24.1932 2.53693L23.0767 1.10227L21.8636 2.04545Z" fill="#00A8EE"/>
</svg>
