<svg id="Layer_1" data-name="Layer 1" xmlns="http://www.w3.org/2000/svg" viewBox="0 0 64 64"><defs><style>.cls-1{fill:none;stroke:#00a8ee;stroke-linecap:round;stroke-linejoin:round;stroke-width:2px;}</style></defs><path class="cls-1" d="M57.56,54a2,2,0,0,0,1.55-3.26c-2.5-3.07-5.9-7.9-7.11-12.74C50,30,52,8,32,8S14,30,12,38c-1.21,4.84-4.61,9.67-7.11,12.74A2,2,0,0,0,6.44,54Z"/><path class="cls-1" d="M28,8V6a4,4,0,0,1,8,0V8"/><path class="cls-1" d="M40,54a8,8,0,0,1-16,0"/><path class="cls-1" d="M8,24A21.31,21.31,0,0,1,20,6"/><path class="cls-1" d="M56,24A21.31,21.31,0,0,0,44,6"/><path class="cls-1" d="M20,44a43.6,43.6,0,0,0,12,2,43.6,43.6,0,0,0,12-2"/></svg>