<svg id="Layer_1" data-name="Layer 1" xmlns="http://www.w3.org/2000/svg" viewBox="0 0 64 64"><defs><style>.cls-1{fill:none;stroke:#00a8ee;stroke-linecap:round;stroke-linejoin:round;stroke-width:2px;}.cls-2{fill:#00a8ee;}</style></defs><path class="cls-1" d="M2,12V4A2,2,0,0,1,4,2h8"/><path class="cls-1" d="M52,2h8a2,2,0,0,1,2,2v8"/><path class="cls-1" d="M62,52v8a2,2,0,0,1-2,2H52"/><path class="cls-1" d="M12,62H4a2,2,0,0,1-2-2V52"/><rect class="cls-1" x="12" y="12" width="16" height="16"/><rect class="cls-1" x="12" y="36" width="16" height="16"/><rect class="cls-1" x="36" y="12" width="16" height="16"/><polyline class="cls-1" points="34 52 34 34 52 34"/><rect class="cls-2" x="16" y="16" width="8" height="8"/><rect class="cls-2" x="40" y="16" width="8" height="8"/><rect class="cls-2" x="16" y="40" width="8" height="8"/><line class="cls-1" x1="28" y1="20" x2="36" y2="20"/><line class="cls-1" x1="16" y1="28" x2="16" y2="36"/><polyline class="cls-1" points="38 42 46 42 46 46"/><line class="cls-1" x1="50" y1="38" x2="50" y2="46"/><polyline class="cls-1" points="40 46 40 52 46 52"/><line class="cls-1" x1="42" y1="42" x2="42" y2="34"/></svg>