<svg id="Layer_1" data-name="Layer 1" xmlns="http://www.w3.org/2000/svg" viewBox="0 0 64 64"><defs><style>.cls-1{fill:none;stroke:#00a8ee;stroke-linecap:round;stroke-linejoin:round;stroke-width:2px;}.cls-2{fill:#00a8ee;}</style></defs><path class="cls-1" d="M58,48v8a4,4,0,0,1-4,4H6a4,4,0,0,1-4-4V26a4,4,0,0,1,4-4H54a4,4,0,0,1,4,4v8"/><path class="cls-1" d="M49,34H62a0,0,0,0,1,0,0V48a0,0,0,0,1,0,0H49a7,7,0,0,1-7-7v0A7,7,0,0,1,49,34Z"/><path class="cls-1" d="M12,22,44.37,8.67a2,2,0,0,1,2.5.86L54,22"/><path class="cls-1" d="M36,12,29.28,5.28a2,2,0,0,0-2.68-.13L6,22"/><circle class="cls-2" cx="50" cy="41" r="3"/><line class="cls-1" x1="26" y1="22" x2="44" y2="16"/></svg>