<?xml version="1.0" encoding="utf-8"?>
<!-- Generator: Adobe Illustrator 25.4.1, SVG Export Plug-In . SVG Version: 6.00 Build 0)  -->
<svg version="1.1" id="Layer_1" xmlns="http://www.w3.org/2000/svg" xmlns:xlink="http://www.w3.org/1999/xlink" x="0px" y="0px"
	 viewBox="0 0 210 43.91" enable-background="new 0 0 210 43.91" xml:space="preserve">
<path fill="#0A307C" d="M0.97,43.93c-0.14,0-0.28-0.03-0.41-0.09c-0.12-0.05-0.22-0.13-0.31-0.22c-0.09-0.09-0.15-0.2-0.2-0.32
	C0.01,43.17,0,43.04,0,42.91c0.01-0.13,0.04-0.25,0.09-0.37l8.43-18.05c0.09-0.18,0.21-0.35,0.36-0.48
	c0.15-0.13,0.33-0.23,0.53-0.29c0.2-0.06,0.4-0.08,0.6-0.05c0.2,0.02,0.4,0.09,0.57,0.2l27.6,16.61l-3.75-8.04l-23.33-9.92
	c-0.18-0.08-0.34-0.19-0.48-0.33c-0.14-0.14-0.24-0.3-0.31-0.49c-0.14-0.37-0.12-0.78,0.04-1.13l2.85-6.13
	c0.09-0.19,0.22-0.36,0.38-0.5c0.16-0.14,0.35-0.24,0.56-0.29c0.2-0.05,0.42-0.06,0.63-0.03c0.21,0.04,0.41,0.12,0.58,0.24
	l15.37,10.67l-2.67-5.74l-12.3-6.51c-0.33-0.17-0.58-0.47-0.7-0.82c-0.12-0.35-0.09-0.74,0.06-1.07l4.26-9.11
	c0.12-0.25,0.3-0.47,0.54-0.61c0.23-0.15,0.51-0.23,0.78-0.22c0.28,0,0.55,0.08,0.78,0.23c0.23,0.15,0.42,0.36,0.53,0.61l5.63,12.05
	c0.1,0.23,0.11,0.5,0.02,0.73c-0.09,0.24-0.27,0.43-0.5,0.54c-0.23,0.11-0.49,0.12-0.73,0.03c-0.24-0.08-0.44-0.26-0.55-0.49
	l-5.16-11.1l-3.61,7.73l12.03,6.38c0.28,0.15,0.5,0.38,0.64,0.67l3.53,7.55c0.14,0.29,0.17,0.62,0.1,0.93
	c-0.07,0.31-0.24,0.59-0.48,0.8c-0.25,0.21-0.55,0.33-0.87,0.34c-0.32,0.01-0.64-0.08-0.9-0.26L14.76,15.78l-2.4,5.14l23.15,9.89
	c0.24,0.09,0.43,0.27,0.54,0.5l4.59,9.83c0.13,0.28,0.17,0.6,0.11,0.9c-0.06,0.31-0.22,0.58-0.45,0.79
	c-0.23,0.21-0.53,0.34-0.84,0.37c-0.31,0.03-0.62-0.04-0.89-0.2L10.05,25.83L1.85,43.36c-0.08,0.17-0.2,0.31-0.36,0.41
	C1.34,43.87,1.15,43.93,0.97,43.93z M75.29,26.84H59.73l-2.97,7.17h-7.93L63.76,0.57h7.64l14.98,33.44h-8.15L75.29,26.84z
	 M72.84,20.97l-5.3-12.8l-5.3,12.8H72.84z M89.87,0.57h7.74v33.44h-7.74V0.57z M112.34,32.36c-2.7-1.42-4.95-3.55-6.52-6.16
	c-1.55-2.71-2.37-5.78-2.37-8.91s0.82-6.2,2.37-8.91c1.57-2.61,3.82-4.74,6.52-6.16c2.87-1.51,6.07-2.27,9.31-2.22
	c2.7-0.04,5.38,0.48,7.86,1.52c2.29,0.98,4.31,2.49,5.91,4.4l-4.98,4.58c-1.02-1.24-2.3-2.24-3.76-2.92c-1.46-0.68-3.05-1.02-4.66-1
	c-1.94-0.03-3.85,0.44-5.55,1.37c-1.6,0.88-2.92,2.2-3.81,3.79c-0.9,1.71-1.36,3.61-1.36,5.54c0,1.93,0.47,3.83,1.36,5.54
	c0.88,1.6,2.2,2.92,3.81,3.8c1.7,0.93,3.61,1.39,5.55,1.36c3.35,0,6.16-1.32,8.42-3.97l4.98,4.59c-1.58,1.94-3.61,3.46-5.91,4.44
	c-2.5,1.05-5.19,1.57-7.9,1.53C118.39,34.63,115.2,33.87,112.34,32.36L112.34,32.36z M146.74,32.34c-2.71-1.42-4.98-3.56-6.55-6.19
	c-1.55-2.7-2.37-5.75-2.37-8.86s0.82-6.17,2.37-8.86c1.57-2.62,3.84-4.76,6.55-6.19c2.91-1.48,6.13-2.24,9.39-2.24
	s6.48,0.77,9.39,2.24c2.73,1.45,5.02,3.62,6.61,6.27c1.59,2.65,2.43,5.68,2.43,8.78s-0.84,6.12-2.43,8.78s-3.88,4.82-6.61,6.27
	c-2.91,1.48-6.13,2.24-9.39,2.24S149.65,33.82,146.74,32.34L146.74,32.34z M161.51,26.64c1.58-0.89,2.88-2.21,3.76-3.8
	c0.9-1.71,1.36-3.61,1.36-5.54s-0.47-3.83-1.36-5.54c-0.87-1.59-2.18-2.9-3.76-3.79c-1.64-0.89-3.49-1.36-5.36-1.36
	c-1.87,0-3.71,0.47-5.36,1.36c-1.58,0.89-2.88,2.21-3.76,3.79c-0.9,1.71-1.36,3.61-1.36,5.54s0.47,3.83,1.36,5.54
	c0.88,1.59,2.18,2.9,3.76,3.8c1.64,0.89,3.49,1.36,5.36,1.36C158.02,28,159.86,27.54,161.51,26.64z M201.66,34.02l-6.45-9.32h-7.13
	v9.31h-7.74V0.57h14.5c2.66-0.06,5.3,0.44,7.74,1.48c2.09,0.87,3.86,2.36,5.08,4.26s1.82,4.13,1.73,6.39
	c0.09,2.26-0.52,4.49-1.75,6.38c-1.23,1.89-3.03,3.36-5.14,4.19L210,34.03L201.66,34.02z M199.7,8.4c-1.21-1-2.98-1.5-5.3-1.5h-6.32
	v11.66h6.32c2.33,0,4.1-0.51,5.3-1.53c1.2-1.02,1.81-2.45,1.82-4.3c0-1.89-0.6-3.34-1.81-4.34L199.7,8.4z M52.94,42.72h-2.61
	l-0.51,1.22h-0.99l2.35-5.2h0.95l2.35,5.2h-1.01L52.94,42.72z M52.62,41.96l-0.98-2.27l-0.97,2.27H52.62z M58.55,43.93l-1.06-1.52
	h-0.2h-1.17v1.51h-0.97v-5.19h2.14c0.41-0.01,0.81,0.07,1.18,0.22c0.31,0.13,0.58,0.35,0.77,0.64c0.18,0.3,0.28,0.65,0.28,1
	s-0.1,0.7-0.28,1c-0.2,0.29-0.49,0.51-0.81,0.63l1.2,1.71H58.55z M58.21,39.81c-0.28-0.2-0.62-0.29-0.96-0.27h-1.13v2.07h1.13
	c0.34,0.03,0.68-0.07,0.96-0.27c0.1-0.1,0.19-0.22,0.24-0.35c0.06-0.13,0.09-0.27,0.09-0.42c0-0.14-0.03-0.29-0.09-0.42
	C58.39,40.03,58.31,39.91,58.21,39.81z M61.57,39.54h-1.74v-0.81h4.43v0.81h-1.73v4.38h-0.97L61.57,39.54z M65,38.73h0.95v5.2h-0.97
	L65,38.73z M68.34,39.54v1.59h2.5v0.81h-2.52v1.99h-0.97v-5.21h3.81v0.81L68.34,39.54z M72.12,38.73h0.97v5.2h-0.97V38.73z
	 M75.48,43.66c-0.41-0.22-0.76-0.55-1-0.96c-0.24-0.42-0.37-0.89-0.36-1.37c-0.01-0.48,0.11-0.95,0.35-1.36
	c0.24-0.41,0.59-0.75,1.01-0.97c0.4-0.2,0.84-0.32,1.28-0.34c0.45-0.02,0.89,0.05,1.31,0.22c0.35,0.14,0.65,0.36,0.89,0.65
	l-0.62,0.59c-0.17-0.2-0.39-0.35-0.63-0.46c-0.24-0.11-0.5-0.16-0.76-0.15c-0.34-0.01-0.67,0.08-0.96,0.24
	c-0.28,0.15-0.51,0.38-0.66,0.65c-0.16,0.29-0.24,0.61-0.24,0.94c0,0.33,0.08,0.65,0.24,0.94c0.16,0.27,0.38,0.5,0.66,0.65
	c0.3,0.16,0.63,0.24,0.96,0.23c0.26,0,0.52-0.05,0.76-0.15c0.24-0.11,0.46-0.26,0.63-0.46l0.62,0.59c-0.24,0.28-0.55,0.5-0.9,0.65
	c-0.37,0.15-0.77,0.23-1.17,0.22C76.4,44.01,75.91,43.89,75.48,43.66L75.48,43.66z M79.91,38.73h0.97v5.2h-0.97V38.73z M85.66,42.73
	h-2.6l-0.51,1.22h-1l2.33-5.22h0.95l2.36,5.2h-1.01L85.66,42.73z M85.34,41.97l-0.98-2.27l-0.98,2.27H85.34z M87.86,38.72h0.97v4.38
	h2.73v0.81h-3.69V38.72z M94.38,38.72h0.97v5.2h-0.97V38.72z M101.39,38.72v5.2h-0.81l-2.88-3.52v3.52h-0.96v-5.19h0.79l2.88,3.52
	v-3.52L101.39,38.72z M103.83,39.53h-1.73v-0.81h4.42v0.81h-1.73v4.38h-0.95L103.83,39.53z M111.16,43.1v0.81h-3.91v-5.19h3.81v0.81
	h-2.85v1.35h2.52v0.81h-2.52v1.43L111.16,43.1z M112.24,38.71h0.97v4.38h2.73v0.81h-3.69L112.24,38.71z M116.7,38.71h0.99v4.38h2.73
	v0.81h-3.69L116.7,38.71z M121.16,38.71h0.97v5.2h-0.97V38.71z M127.1,41.25h0.91v2.07c-0.28,0.22-0.6,0.39-0.95,0.49
	c-0.35,0.11-0.73,0.17-1.1,0.17c-0.5,0.01-0.99-0.11-1.44-0.35c-0.42-0.22-0.76-0.55-1.01-0.96c-0.24-0.42-0.36-0.89-0.36-1.37
	c0-0.48,0.12-0.96,0.36-1.37c0.24-0.4,0.59-0.73,1.01-0.96c0.44-0.24,0.94-0.35,1.45-0.35c0.41,0,0.81,0.07,1.19,0.22
	c0.35,0.14,0.65,0.35,0.9,0.63l-0.61,0.59c-0.19-0.19-0.41-0.34-0.66-0.45s-0.51-0.15-0.78-0.15c-0.34-0.01-0.68,0.07-0.98,0.23
	c-0.28,0.15-0.51,0.37-0.67,0.65c-0.17,0.29-0.25,0.62-0.24,0.95c0,0.33,0.08,0.65,0.24,0.94c0.16,0.28,0.39,0.5,0.67,0.65
	c0.3,0.16,0.63,0.24,0.97,0.24c0.37,0.01,0.74-0.08,1.07-0.26L127.1,41.25z M133.21,43.1v0.81h-3.91v-5.19h3.81v0.81h-2.85v1.35
	h2.52v0.81h-2.51v1.43L133.21,43.1z M138.92,38.71v5.2h-0.81l-2.88-3.52v3.52h-0.96v-5.19h0.79l2.88,3.52v-3.52L138.92,38.71z
	 M141.31,43.64c-0.41-0.22-0.76-0.55-1-0.96c-0.24-0.42-0.37-0.89-0.36-1.37c-0.01-0.48,0.12-0.95,0.36-1.36
	c0.24-0.41,0.59-0.75,1.01-0.97c0.4-0.2,0.84-0.32,1.28-0.34c0.45-0.02,0.89,0.05,1.31,0.22c0.34,0.14,0.65,0.36,0.89,0.65
	l-0.62,0.59c-0.17-0.2-0.39-0.35-0.63-0.46c-0.24-0.11-0.5-0.16-0.76-0.15c-0.34-0.01-0.67,0.08-0.96,0.24
	c-0.28,0.15-0.51,0.38-0.66,0.65c-0.15,0.29-0.24,0.61-0.24,0.94c0,0.33,0.08,0.65,0.24,0.94c0.16,0.27,0.39,0.5,0.66,0.65
	c0.3,0.16,0.63,0.24,0.96,0.23c0.26,0,0.52-0.05,0.76-0.15c0.24-0.11,0.46-0.26,0.63-0.46l0.62,0.59c-0.24,0.28-0.55,0.5-0.9,0.65
	c-0.37,0.15-0.77,0.23-1.17,0.22c-0.5,0.01-0.99-0.1-1.43-0.33L141.31,43.64z M149.64,43.1v0.81h-3.91v-5.19h3.8v0.81h-2.85v1.35
	h2.52v0.81h-2.52v1.43L149.64,43.1z M153.77,43.64c-0.41-0.22-0.76-0.55-1-0.96c-0.24-0.42-0.37-0.89-0.36-1.37
	c-0.01-0.48,0.12-0.96,0.37-1.37c0.24-0.4,0.58-0.73,1-0.96c0.4-0.2,0.84-0.32,1.28-0.34c0.45-0.02,0.89,0.05,1.31,0.22
	c0.35,0.14,0.65,0.36,0.9,0.65l-0.63,0.59c-0.17-0.2-0.39-0.35-0.63-0.46c-0.24-0.11-0.5-0.16-0.76-0.15
	c-0.33-0.01-0.66,0.08-0.96,0.24c-0.28,0.15-0.51,0.38-0.66,0.65c-0.16,0.29-0.24,0.61-0.24,0.94c0,0.33,0.08,0.65,0.24,0.94
	c0.16,0.27,0.39,0.5,0.66,0.65c0.29,0.16,0.62,0.24,0.96,0.23c0.26,0,0.52-0.05,0.76-0.15c0.24-0.11,0.45-0.26,0.63-0.46l0.63,0.59
	c-0.25,0.28-0.55,0.5-0.9,0.65c-0.37,0.15-0.77,0.23-1.17,0.22c-0.5,0.01-0.99-0.1-1.43-0.33L153.77,43.64z M159.06,43.64
	c-0.42-0.22-0.77-0.55-1.01-0.96c-0.24-0.42-0.37-0.89-0.37-1.37c0-0.48,0.13-0.95,0.37-1.37c0.24-0.41,0.59-0.74,1.01-0.96
	c0.44-0.22,0.93-0.34,1.43-0.34c0.5,0,0.98,0.12,1.43,0.34c0.42,0.22,0.76,0.55,1.01,0.96c0.24,0.42,0.36,0.89,0.36,1.37
	c0,0.48-0.12,0.96-0.36,1.37c-0.24,0.4-0.59,0.73-1.01,0.96c-0.44,0.22-0.93,0.34-1.43,0.34C159.99,43.99,159.5,43.87,159.06,43.64z
	 M161.44,42.91c0.27-0.15,0.5-0.38,0.65-0.65c0.16-0.29,0.24-0.61,0.24-0.94c0-0.33-0.08-0.65-0.24-0.94
	c-0.15-0.27-0.38-0.5-0.65-0.65c-0.29-0.15-0.61-0.24-0.94-0.24c-0.33,0-0.65,0.08-0.94,0.24c-0.27,0.15-0.5,0.38-0.66,0.65
	c-0.15,0.29-0.24,0.61-0.24,0.94c0,0.33,0.08,0.65,0.24,0.94c0.16,0.27,0.38,0.5,0.66,0.65c0.29,0.15,0.61,0.23,0.94,0.23
	C160.83,43.14,161.15,43.06,161.44,42.91z M167.75,43.91l-1.07-1.52h-0.2h-1.18v1.51h-0.97v-5.18h2.15c0.4-0.01,0.81,0.07,1.18,0.22
	c0.31,0.13,0.58,0.35,0.77,0.64c0.18,0.3,0.27,0.65,0.27,1s-0.1,0.7-0.27,1c-0.2,0.29-0.48,0.51-0.81,0.63l1.2,1.71L167.75,43.91z
	 M167.4,39.8c-0.28-0.2-0.62-0.29-0.96-0.27h-1.13v2.07h1.13c0.34,0.02,0.68-0.07,0.96-0.27c0.1-0.1,0.18-0.22,0.24-0.35
	c0.06-0.13,0.09-0.27,0.09-0.42c0-0.14-0.03-0.28-0.09-0.42C167.58,40.02,167.5,39.9,167.4,39.8z M173.1,38.93
	c0.31,0.13,0.58,0.35,0.77,0.64c0.17,0.3,0.26,0.64,0.26,0.99c0,0.35-0.09,0.69-0.26,0.99c-0.18,0.29-0.45,0.51-0.76,0.65
	c-0.37,0.15-0.77,0.23-1.18,0.22h-1.18v1.5h-0.97v-5.19h2.15c0.4-0.01,0.8,0.06,1.18,0.22L173.1,38.93z M172.84,41.33
	c0.11-0.09,0.2-0.21,0.25-0.34c0.06-0.13,0.08-0.28,0.07-0.42c0.01-0.14-0.02-0.29-0.07-0.42c-0.06-0.13-0.14-0.25-0.25-0.34
	c-0.28-0.2-0.62-0.29-0.96-0.27h-1.13v2.07h1.15c0.34,0.03,0.68-0.06,0.96-0.26L172.84,41.33z M176.18,43.64
	c-0.42-0.22-0.77-0.55-1.01-0.96c-0.24-0.42-0.36-0.89-0.36-1.37c0-0.48,0.12-0.95,0.36-1.37c0.24-0.41,0.59-0.74,1.01-0.96
	c0.45-0.23,0.94-0.35,1.44-0.35s0.99,0.12,1.44,0.35c0.41,0.22,0.76,0.55,1,0.96c0.24,0.42,0.37,0.89,0.37,1.37
	c0,0.48-0.13,0.96-0.37,1.37c-0.24,0.4-0.59,0.73-1,0.96c-0.44,0.23-0.94,0.35-1.44,0.35S176.63,43.87,176.18,43.64z M178.56,42.91
	c0.27-0.15,0.5-0.38,0.66-0.65c0.15-0.29,0.24-0.61,0.24-0.94c0-0.33-0.08-0.65-0.24-0.94c-0.15-0.27-0.38-0.5-0.66-0.65
	c-0.29-0.15-0.61-0.24-0.94-0.24c-0.33,0-0.65,0.08-0.94,0.24c-0.28,0.15-0.5,0.38-0.66,0.65c-0.16,0.29-0.24,0.61-0.24,0.94
	c0,0.33,0.08,0.65,0.24,0.94c0.15,0.28,0.38,0.5,0.66,0.65c0.29,0.15,0.61,0.23,0.94,0.23C177.94,43.14,178.27,43.06,178.56,42.91z
	 M184.86,43.91l-1.06-1.52h-0.2h-1.17v1.51h-0.97v-5.18h2.14c0.41-0.01,0.81,0.07,1.18,0.22c0.31,0.13,0.58,0.35,0.77,0.64
	c0.18,0.3,0.28,0.65,0.28,1s-0.09,0.7-0.28,1c-0.2,0.29-0.48,0.51-0.81,0.63l1.2,1.71L184.86,43.91z M184.51,39.8
	c-0.28-0.2-0.62-0.29-0.96-0.27h-1.13v2.07h1.13c0.34,0.02,0.68-0.07,0.96-0.27c0.11-0.1,0.19-0.22,0.24-0.35
	c0.06-0.13,0.09-0.27,0.09-0.42c0-0.14-0.03-0.29-0.09-0.42C184.7,40.01,184.62,39.9,184.51,39.8z M190.28,42.71h-2.61l-0.51,1.22
	h-1l2.35-5.2h0.95l2.35,5.2h-1.01L190.28,42.71z M189.96,41.95l-0.98-2.27L188,41.95H189.96z M193.27,39.51h-1.73V38.7h4.43v0.81
	h-1.73v4.38h-0.97V39.51z M196.7,38.7h0.97v5.2h-0.97V38.7z M200.07,43.63c-0.42-0.22-0.77-0.55-1.01-0.96
	c-0.24-0.42-0.36-0.89-0.36-1.37c0-0.48,0.12-0.95,0.36-1.37c0.24-0.41,0.59-0.74,1.01-0.96c0.44-0.22,0.93-0.34,1.43-0.34
	c0.5,0,0.98,0.12,1.43,0.34c0.42,0.22,0.77,0.55,1.01,0.96c0.24,0.42,0.37,0.89,0.37,1.37s-0.13,0.96-0.37,1.37
	c-0.24,0.41-0.59,0.74-1.01,0.96c-0.44,0.22-0.93,0.34-1.43,0.34C201,43.97,200.51,43.86,200.07,43.63z M202.45,42.9
	c0.27-0.15,0.5-0.38,0.66-0.65c0.15-0.29,0.24-0.61,0.24-0.94c0-0.33-0.08-0.65-0.24-0.94c-0.16-0.26-0.38-0.47-0.65-0.61
	c-0.29-0.15-0.61-0.24-0.94-0.24c-0.33,0-0.65,0.08-0.94,0.24c-0.27,0.15-0.5,0.38-0.65,0.65c-0.16,0.29-0.24,0.61-0.24,0.94
	c0,0.33,0.08,0.65,0.24,0.94c0.15,0.27,0.38,0.5,0.65,0.65c0.29,0.15,0.61,0.23,0.94,0.23c0.33,0,0.65-0.08,0.94-0.23L202.45,42.9z
	 M209.98,38.7v5.2h-0.81l-2.85-3.52v3.52h-0.96v-5.18h0.81l2.87,3.52v-3.52L209.98,38.7z"/>
</svg>
