<?xml version="1.0" encoding="utf-8"?>
<!-- Generator: Adobe Illustrator 25.4.1, SVG Export Plug-In . SVG Version: 6.00 Build 0)  -->
<svg version="1.1" id="Layer_1" xmlns="http://www.w3.org/2000/svg" xmlns:xlink="http://www.w3.org/1999/xlink" x="0px" y="0px"
	 viewBox="0 0 140 140" enable-background="new 0 0 140 140" xml:space="preserve">
<g>
	
		<polyline fill="none" stroke="#0A307C" stroke-width="2.5" stroke-linecap="round" stroke-linejoin="round" stroke-miterlimit="10" points="
		102,80 102,110 110,104 118,110 118,86 	"/>
	<g>
		
			<path fill="none" stroke="#0A307C" stroke-width="2.5" stroke-linecap="round" stroke-linejoin="round" stroke-miterlimit="10" d="
			M129.08,64c0,2.44-2.56,4.35-3.44,6.48c-0.91,2.2-0.49,5.36-2.15,7.02c-1.66,1.66-4.82,1.23-7.02,2.14
			c-2.12,0.88-4.04,3.44-6.48,3.44c-2.44,0-4.35-2.56-6.48-3.44c-2.2-0.91-5.36-0.49-7.02-2.15c-1.66-1.66-1.23-4.82-2.14-7.02
			c-0.88-2.12-3.44-4.04-3.44-6.48c0-2.44,2.56-4.35,3.44-6.48c0.91-2.2,0.49-5.36,2.15-7.02c1.66-1.66,4.82-1.23,7.02-2.14
			c2.12-0.88,4.04-3.44,6.48-3.44c2.44,0,4.35,2.56,6.48,3.44c2.2,0.91,5.36,0.49,7.02,2.15c1.66,1.66,1.23,4.82,2.14,7.02
			C126.52,59.65,129.08,61.56,129.08,64z"/>
	</g>
	
		<circle fill="none" stroke="#0A307C" stroke-width="2.5" stroke-linecap="round" stroke-linejoin="round" stroke-miterlimit="10" cx="110" cy="64" r="12"/>
	
		<polyline fill="none" stroke="#0A307C" stroke-width="2.5" stroke-linecap="round" stroke-linejoin="round" stroke-miterlimit="10" points="
		106,64 108.67,66.67 114,61.33 	"/>
	<path fill="none" stroke="#0A307C" stroke-width="2.5" stroke-linecap="round" stroke-linejoin="round" stroke-miterlimit="10" d="
		M110,38V18.34c0-5.33,4.02-9.98,9.33-10.32C125.16,7.64,130,12.26,130,18v12h-20"/>
	<path fill="none" stroke="#0A307C" stroke-width="2.5" stroke-linecap="round" stroke-linejoin="round" stroke-miterlimit="10" d="
		M20,132h82c4.42,0,8-3.58,8-8v-6"/>
	<path fill="none" stroke="#0A307C" stroke-width="2.5" stroke-linecap="round" stroke-linejoin="round" stroke-miterlimit="10" d="
		M30,110H10c0,0,0,12,0,12v0c0,4.28,2.68,8.21,6.77,9.49C23.66,133.66,30,128.57,30,122V16c0-4.42,3.58-8,8-8h82"/>
	
		<line fill="none" stroke="#0A307C" stroke-width="2.5" stroke-linecap="round" stroke-linejoin="round" stroke-miterlimit="10" x1="54" y1="56" x2="86" y2="56"/>
	
		<line fill="none" stroke="#0A307C" stroke-width="2.5" stroke-linecap="round" stroke-linejoin="round" stroke-miterlimit="10" x1="54" y1="70" x2="86" y2="70"/>
	
		<line fill="none" stroke="#0A307C" stroke-width="2.5" stroke-linecap="round" stroke-linejoin="round" stroke-miterlimit="10" x1="54" y1="84" x2="86" y2="84"/>
	
		<line fill="none" stroke="#0A307C" stroke-width="2.5" stroke-linecap="round" stroke-linejoin="round" stroke-miterlimit="10" x1="54" y1="98" x2="86" y2="98"/>
	
		<line fill="none" stroke="#0A307C" stroke-width="2.5" stroke-linecap="round" stroke-linejoin="round" stroke-miterlimit="10" x1="59.5" y1="112" x2="80.5" y2="112"/>
	
		<polygon fill="none" stroke="#0A307C" stroke-width="2.5" stroke-linecap="round" stroke-linejoin="round" stroke-miterlimit="10" points="
		70,19.68 72.36,26.94 80,26.94 73.82,31.43 76.18,38.7 70,34.21 63.82,38.7 66.18,31.43 60,26.94 67.64,26.94 	"/>
	
		<polygon fill="none" stroke="#0A307C" stroke-width="2.5" stroke-linecap="round" stroke-linejoin="round" stroke-miterlimit="10" points="
		92,26.69 93.89,32.5 100,32.5 95.06,36.09 96.94,41.9 92,38.31 87.06,41.9 88.94,36.09 84,32.5 90.11,32.5 	"/>
	
		<polygon fill="none" stroke="#0A307C" stroke-width="2.5" stroke-linecap="round" stroke-linejoin="round" stroke-miterlimit="10" points="
		48,25.79 49.89,31.6 56,31.6 51.06,35.19 52.94,41.01 48,37.41 43.06,41.01 44.94,35.19 40,31.6 46.11,31.6 	"/>
	<path fill="none" stroke="#0A307C" stroke-width="2.5" stroke-linecap="round" stroke-linejoin="round" stroke-miterlimit="10" d="
		M92,124H48c0-5.52-4.48-10-10-10V50"/>
</g>
</svg>
