<?xml version="1.0" encoding="utf-8"?>
<!-- Generator: Adobe Illustrator 25.4.1, SVG Export Plug-In . SVG Version: 6.00 Build 0)  -->
<svg version="1.1" id="Layer_1" xmlns="http://www.w3.org/2000/svg" xmlns:xlink="http://www.w3.org/1999/xlink" x="0px" y="0px"
	 viewBox="0 0 20 30" enable-background="new 0 0 20 30" xml:space="preserve">
<g>
	<path fill="#ABAEBA" d="M10,2c4.41,0,8,3.59,8,8v10c0,4.41-3.59,8-8,8s-8-3.59-8-8V10C2,5.59,5.59,2,10,2 M10,0C4.48,0,0,4.48,0,10
		v10c0,5.52,4.48,10,10,10s10-4.48,10-10V10C20,4.48,15.52,0,10,0L10,0z"/>
</g>
<line fill="none" stroke="#ABAEBA" stroke-width="2" stroke-linecap="round" x1="10" y1="7.58" x2="10" y2="13.58"/>
</svg>
