<?xml version="1.0" encoding="utf-8"?>
<!-- Generator: Adobe Illustrator 25.4.1, SVG Export Plug-In . SVG Version: 6.00 Build 0)  -->
<svg version="1.1" id="Layer_1" xmlns="http://www.w3.org/2000/svg" xmlns:xlink="http://www.w3.org/1999/xlink" x="0px" y="0px"
	 viewBox="0 0 24 24" enable-background="new 0 0 24 24" xml:space="preserve">
<g>
	<path fill="none" stroke="#00A8EE" stroke-width="2" stroke-linecap="round" stroke-linejoin="round" d="M12,13c1.66,0,3-1.34,3-3
		c0-1.66-1.34-3-3-3c-1.66,0-3,1.34-3,3C9,11.66,10.34,13,12,13z"/>
	<path fill="none" stroke="#00A8EE" stroke-width="2" stroke-linecap="round" stroke-linejoin="round" d="M12,2
		C9.88,2,7.84,2.84,6.34,4.34C4.84,5.84,4,7.88,4,10c0,1.89,0.4,3.13,1.5,4.5L12,22l6.5-7.5c1.1-1.37,1.5-2.61,1.5-4.5
		c0-2.12-0.84-4.16-2.34-5.66C16.16,2.84,14.12,2,12,2L12,2z"/>
</g>
</svg>
