<?xml version="1.0" encoding="utf-8"?>
<!-- Generator: Adobe Illustrator 25.4.1, SVG Export Plug-In . SVG Version: 6.00 Build 0)  -->
<svg version="1.1" id="Layer_1" xmlns="http://www.w3.org/2000/svg" xmlns:xlink="http://www.w3.org/1999/xlink" x="0px" y="0px"
	 viewBox="0 0 30 30" enable-background="new 0 0 30 30" xml:space="preserve">
<path fill="#00A8EE" d="M26.82,5H3.18c-0.5,0-0.91,0.41-0.91,0.91v18.18c0,0.5,0.41,0.91,0.91,0.91h23.64c0.5,0,0.91-0.41,0.91-0.91
	V5.91C27.73,5.41,27.32,5,26.82,5z M24.14,7.05L15,14.15l-9.13-7.1H24.14z M25.68,22.95H4.32V8.15L3.53,7.54V7.53l0.79,0.61
	l9.7,7.55c0.28,0.22,0.62,0.33,0.98,0.33c0.35,0,0.69-0.11,0.97-0.33l9.71-7.54V22.95z"/>
</svg>
