<?xml version="1.0" encoding="utf-8"?>
<!-- Generator: Adobe Illustrator 25.4.1, SVG Export Plug-In . SVG Version: 6.00 Build 0)  -->
<svg version="1.1" id="Layer_1" xmlns="http://www.w3.org/2000/svg" xmlns:xlink="http://www.w3.org/1999/xlink" x="0px" y="0px"
	 viewBox="0 0 140 140" enable-background="new 0 0 140 140" xml:space="preserve">
<path fill="none" stroke="#0A307C" stroke-width="2.5" stroke-linecap="round" stroke-linejoin="round" stroke-miterlimit="10" d="
	M30,86H12c-2.21,0-4-1.79-4-4V12c0-2.21,1.79-4,4-4h116c2.21,0,4,1.79,4,4v70c0,2.21-1.79,4-4,4h-18"/>
<line fill="none" stroke="#0A307C" stroke-width="2.5" stroke-linecap="round" stroke-linejoin="round" stroke-miterlimit="10" x1="8" y1="20" x2="132" y2="20"/>
<circle fill="#0A307C" cx="16" cy="14" r="2"/>
<circle fill="#0A307C" cx="24" cy="14" r="2"/>
<circle fill="#0A307C" cx="32" cy="14" r="2"/>
<line fill="none" stroke="#0A307C" stroke-width="2.5" stroke-linecap="round" stroke-linejoin="round" stroke-miterlimit="10" x1="46" y1="14" x2="102" y2="14"/>
<line fill="none" stroke="#0A307C" stroke-width="2.5" stroke-linecap="round" stroke-linejoin="round" stroke-miterlimit="10" x1="108" y1="14" x2="126" y2="14"/>
<path fill="none" stroke="#0A307C" stroke-width="2.5" stroke-linecap="round" stroke-linejoin="round" stroke-miterlimit="10" d="
	M102,70c2,48-32,62-32,62s-34-14-32-62l32-16L102,70z"/>
<path fill="none" stroke="#0A307C" stroke-width="2.5" stroke-linecap="round" stroke-linejoin="round" stroke-miterlimit="10" d="
	M78,110H62c-2.21,0-4-1.79-4-4V88h24v18C82,108.21,80.21,110,78,110z"/>
<path fill="none" stroke="#0A307C" stroke-width="2.5" stroke-linecap="round" stroke-linejoin="round" stroke-miterlimit="10" d="
	M62,88v-6c0-4.42,3.58-8,8-8s8,3.58,8,8v6"/>
<path fill="none" stroke="#0A307C" stroke-width="2.5" stroke-linecap="round" stroke-linejoin="round" stroke-miterlimit="10" d="
	M74,88v-6c0-2.21-1.79-4-4-4s-4,1.79-4,4v6"/>
<circle fill="none" stroke="#0A307C" stroke-width="2.5" stroke-linecap="round" stroke-linejoin="round" stroke-miterlimit="10" cx="70" cy="96" r="2"/>
<line fill="none" stroke="#0A307C" stroke-width="2.5" stroke-linecap="round" stroke-linejoin="round" stroke-miterlimit="10" x1="70" y1="102" x2="70" y2="98"/>
<g>
	<path fill="none" stroke="#0A307C" stroke-width="2.5" stroke-linecap="round" stroke-linejoin="round" stroke-miterlimit="10" d="
		M41.75,43.25c-1,3.88-4.52,6.75-8.72,6.75c-4.97,0-9-4.03-9-9s4.03-9,9-9c1.64,0,3.18,0.44,4.5,1.2"/>
	
		<polyline fill="none" stroke="#0A307C" stroke-width="2.5" stroke-linecap="round" stroke-linejoin="round" stroke-miterlimit="10" points="
		30,40 34,44 42,36 	"/>
</g>
<line fill="none" stroke="#0A307C" stroke-width="2.5" stroke-linecap="round" stroke-linejoin="round" stroke-miterlimit="10" x1="52" y1="38" x2="110" y2="38"/>
<line fill="none" stroke="#0A307C" stroke-width="2.5" stroke-linecap="round" stroke-linejoin="round" stroke-miterlimit="10" x1="52" y1="46" x2="110" y2="46"/>
<circle fill="#0A307C" cx="70" cy="62" r="2"/>
<circle fill="#0A307C" cx="70" cy="124" r="2"/>
<circle fill="#0A307C" cx="46" cy="74" r="2"/>
<circle fill="#0A307C" cx="94" cy="74" r="2"/>
</svg>
