<?xml version="1.0" encoding="utf-8"?>
<!-- Generator: Adobe Illustrator 25.4.1, SVG Export Plug-In . SVG Version: 6.00 Build 0)  -->
<svg version="1.1" id="Layer_1" xmlns="http://www.w3.org/2000/svg" xmlns:xlink="http://www.w3.org/1999/xlink" x="0px" y="0px"
	 viewBox="0 0 140 140" enable-background="new 0 0 140 140" xml:space="preserve">
<circle fill="none" stroke="#0A307C" stroke-width="2.5" stroke-linecap="round" stroke-linejoin="round" stroke-miterlimit="10" cx="70" cy="70" r="32"/>
<circle fill="none" stroke="#0A307C" stroke-width="2.5" stroke-linecap="round" stroke-linejoin="round" stroke-miterlimit="10" cx="70" cy="70" r="24"/>
<circle fill="none" stroke="#0A307C" stroke-width="2.5" stroke-linecap="round" stroke-linejoin="round" stroke-miterlimit="10" cx="70" cy="70" r="16"/>
<circle fill="none" stroke="#0A307C" stroke-width="2.5" stroke-linecap="round" stroke-linejoin="round" stroke-miterlimit="10" cx="70" cy="70" r="8"/>
<circle fill="#0A307C" cx="70" cy="70" r="3"/>
<circle fill="none" stroke="#0A307C" stroke-width="2.5" stroke-linecap="round" stroke-linejoin="round" stroke-miterlimit="10" cx="12" cy="110" r="4"/>
<polyline fill="none" stroke="#0A307C" stroke-width="2.5" stroke-linejoin="round" stroke-miterlimit="10" points="52,96 38,110 
	16,110 "/>
<polyline fill="none" stroke="#0A307C" stroke-width="2.5" stroke-linecap="round" stroke-linejoin="round" stroke-miterlimit="10" points="
	40,102 46,102 46,108 "/>
<circle fill="none" stroke="#0A307C" stroke-width="2.5" stroke-linecap="round" stroke-linejoin="round" stroke-miterlimit="10" cx="128" cy="110" r="4"/>
<polyline fill="none" stroke="#0A307C" stroke-width="2.5" stroke-linejoin="round" stroke-miterlimit="10" points="88,96 102,110 
	124,110 "/>
<polyline fill="none" stroke="#0A307C" stroke-width="2.5" stroke-linecap="round" stroke-linejoin="round" stroke-miterlimit="10" points="
	100,102 94,102 94,108 "/>
<circle fill="none" stroke="#0A307C" stroke-width="2.5" stroke-linecap="round" stroke-linejoin="round" stroke-miterlimit="10" cx="128" cy="30" r="4"/>
<polyline fill="none" stroke="#0A307C" stroke-width="2.5" stroke-linejoin="round" stroke-miterlimit="10" points="88,44 102,30 
	124,30 "/>
<polyline fill="none" stroke="#0A307C" stroke-width="2.5" stroke-linecap="round" stroke-linejoin="round" stroke-miterlimit="10" points="
	100,38 94,38 94,32 "/>
<circle fill="none" stroke="#0A307C" stroke-width="2.5" stroke-linecap="round" stroke-linejoin="round" stroke-miterlimit="10" cx="12" cy="30" r="4"/>
<polyline fill="none" stroke="#0A307C" stroke-width="2.5" stroke-linejoin="round" stroke-miterlimit="10" points="52,44 38,30 
	16,30 "/>
<polyline fill="none" stroke="#0A307C" stroke-width="2.5" stroke-linecap="round" stroke-linejoin="round" stroke-miterlimit="10" points="
	40,38 46,38 46,32 "/>
<g>
	
		<line fill="none" stroke="#0A307C" stroke-width="2.5" stroke-linecap="round" stroke-linejoin="round" stroke-miterlimit="10" x1="46" y1="8" x2="48" y2="10"/>
	
		<line fill="none" stroke="#0A307C" stroke-width="2.5" stroke-linecap="round" stroke-linejoin="round" stroke-miterlimit="10" x1="52" y1="14" x2="54" y2="16"/>
	
		<line fill="none" stroke="#0A307C" stroke-width="2.5" stroke-linecap="round" stroke-linejoin="round" stroke-miterlimit="10" x1="52" y1="10" x2="54" y2="8"/>
	
		<line fill="none" stroke="#0A307C" stroke-width="2.5" stroke-linecap="round" stroke-linejoin="round" stroke-miterlimit="10" x1="48" y1="14" x2="46" y2="16"/>
</g>
<g>
	
		<line fill="none" stroke="#0A307C" stroke-width="2.5" stroke-linecap="round" stroke-linejoin="round" stroke-miterlimit="10" x1="78" y1="18" x2="80" y2="20"/>
	
		<line fill="none" stroke="#0A307C" stroke-width="2.5" stroke-linecap="round" stroke-linejoin="round" stroke-miterlimit="10" x1="84" y1="24" x2="86" y2="26"/>
	
		<line fill="none" stroke="#0A307C" stroke-width="2.5" stroke-linecap="round" stroke-linejoin="round" stroke-miterlimit="10" x1="84" y1="20" x2="86" y2="18"/>
	
		<line fill="none" stroke="#0A307C" stroke-width="2.5" stroke-linecap="round" stroke-linejoin="round" stroke-miterlimit="10" x1="80" y1="24" x2="78" y2="26"/>
</g>
<g>
	
		<line fill="none" stroke="#0A307C" stroke-width="2.5" stroke-linecap="round" stroke-linejoin="round" stroke-miterlimit="10" x1="8" y1="58" x2="10" y2="60"/>
	
		<line fill="none" stroke="#0A307C" stroke-width="2.5" stroke-linecap="round" stroke-linejoin="round" stroke-miterlimit="10" x1="14" y1="64" x2="16" y2="66"/>
	
		<line fill="none" stroke="#0A307C" stroke-width="2.5" stroke-linecap="round" stroke-linejoin="round" stroke-miterlimit="10" x1="14" y1="60" x2="16" y2="58"/>
	
		<line fill="none" stroke="#0A307C" stroke-width="2.5" stroke-linecap="round" stroke-linejoin="round" stroke-miterlimit="10" x1="10" y1="64" x2="8" y2="66"/>
</g>
<g>
	
		<line fill="none" stroke="#0A307C" stroke-width="2.5" stroke-linecap="round" stroke-linejoin="round" stroke-miterlimit="10" x1="124" y1="78" x2="126" y2="80"/>
	
		<line fill="none" stroke="#0A307C" stroke-width="2.5" stroke-linecap="round" stroke-linejoin="round" stroke-miterlimit="10" x1="130" y1="84" x2="132" y2="86"/>
	
		<line fill="none" stroke="#0A307C" stroke-width="2.5" stroke-linecap="round" stroke-linejoin="round" stroke-miterlimit="10" x1="130" y1="80" x2="132" y2="78"/>
	
		<line fill="none" stroke="#0A307C" stroke-width="2.5" stroke-linecap="round" stroke-linejoin="round" stroke-miterlimit="10" x1="126" y1="84" x2="124" y2="86"/>
</g>
<g>
	
		<line fill="none" stroke="#0A307C" stroke-width="2.5" stroke-linecap="round" stroke-linejoin="round" stroke-miterlimit="10" x1="94" y1="124" x2="96" y2="126"/>
	
		<line fill="none" stroke="#0A307C" stroke-width="2.5" stroke-linecap="round" stroke-linejoin="round" stroke-miterlimit="10" x1="100" y1="130" x2="102" y2="132"/>
	
		<line fill="none" stroke="#0A307C" stroke-width="2.5" stroke-linecap="round" stroke-linejoin="round" stroke-miterlimit="10" x1="100" y1="126" x2="102" y2="124"/>
	
		<line fill="none" stroke="#0A307C" stroke-width="2.5" stroke-linecap="round" stroke-linejoin="round" stroke-miterlimit="10" x1="96" y1="130" x2="94" y2="132"/>
</g>
<g>
	
		<line fill="none" stroke="#0A307C" stroke-width="2.5" stroke-linecap="round" stroke-linejoin="round" stroke-miterlimit="10" x1="42" y1="118" x2="44" y2="120"/>
	
		<line fill="none" stroke="#0A307C" stroke-width="2.5" stroke-linecap="round" stroke-linejoin="round" stroke-miterlimit="10" x1="48" y1="124" x2="50" y2="126"/>
	
		<line fill="none" stroke="#0A307C" stroke-width="2.5" stroke-linecap="round" stroke-linejoin="round" stroke-miterlimit="10" x1="48" y1="120" x2="50" y2="118"/>
	
		<line fill="none" stroke="#0A307C" stroke-width="2.5" stroke-linecap="round" stroke-linejoin="round" stroke-miterlimit="10" x1="44" y1="124" x2="42" y2="126"/>
</g>
</svg>
