<?xml version="1.0" encoding="utf-8"?>
<!-- Generator: Adobe Illustrator 25.4.1, SVG Export Plug-In . SVG Version: 6.00 Build 0)  -->
<svg version="1.1" id="Layer_1" xmlns="http://www.w3.org/2000/svg" xmlns:xlink="http://www.w3.org/1999/xlink" x="0px" y="0px"
	 viewBox="0 0 48 48" enable-background="new 0 0 48 48" xml:space="preserve">
<path fill="none" stroke="#0A307C" stroke-width="1.5" stroke-linecap="round" stroke-linejoin="round" d="M30.74,15.56L24.79,2.79
	c-0.04-0.09-0.11-0.16-0.19-0.21S24.42,2.5,24.33,2.5c-0.1,0-0.19,0.03-0.27,0.08s-0.15,0.13-0.19,0.21l-4.5,9.65
	c-0.05,0.12-0.06,0.25-0.02,0.38c0.04,0.12,0.13,0.23,0.24,0.29l13.15,6.98c0.1,0.05,0.17,0.14,0.22,0.23l3.73,7.99
	c0.05,0.1,0.06,0.22,0.04,0.32c-0.02,0.11-0.08,0.21-0.17,0.28c-0.09,0.07-0.19,0.11-0.3,0.12c-0.11,0-0.22-0.03-0.31-0.09
	l-17.82-12.4c-0.06-0.04-0.13-0.07-0.2-0.08c-0.07-0.01-0.15-0.01-0.22,0.01s-0.14,0.05-0.19,0.1c-0.06,0.05-0.1,0.11-0.13,0.17
	l-3.02,6.48c-0.03,0.06-0.05,0.13-0.05,0.2c0,0.07,0.01,0.14,0.03,0.2c0.02,0.06,0.06,0.12,0.11,0.17c0.05,0.05,0.1,0.09,0.17,0.11
	l25.01,10.67l4.85,10.41c0.05,0.1,0.06,0.21,0.04,0.31c-0.02,0.11-0.08,0.2-0.16,0.27c-0.08,0.07-0.18,0.12-0.29,0.13
	c-0.11,0.01-0.22-0.01-0.31-0.07L13.12,27.17c-0.06-0.04-0.13-0.06-0.2-0.07s-0.14,0-0.21,0.02s-0.13,0.06-0.18,0.1
	c-0.05,0.05-0.1,0.1-0.13,0.17L3.49,46.5"/>
</svg>
