<?xml version="1.0" encoding="utf-8"?>
<!-- Generator: Adobe Illustrator 25.4.1, SVG Export Plug-In . SVG Version: 6.00 Build 0)  -->
<svg version="1.1" id="Layer_1" xmlns="http://www.w3.org/2000/svg" xmlns:xlink="http://www.w3.org/1999/xlink" x="0px" y="0px"
	 viewBox="0 0 120 120" enable-background="new 0 0 120 120" xml:space="preserve">
<linearGradient id="SVGID_1_" gradientUnits="userSpaceOnUse" x1="-723.0551" y1="548.3621" x2="-419.0551" y2="244.3621" gradientTransform="matrix(1 0 0 -1 539.0551 364.3621)">
	<stop  offset="0" style="stop-color:#007CEE"/>
	<stop  offset="1" style="stop-color:#FFFFFF"/>
</linearGradient>
<path fill="url(#SVGID_1_)" d="M113.9,3.05c0,0.6,0.18,1.19,0.51,1.69c0.34,0.5,0.81,0.89,1.37,1.12c0.56,0.23,1.17,0.29,1.76,0.17
	c0.59-0.12,1.14-0.41,1.56-0.83c0.43-0.43,0.72-0.97,0.83-1.56c0.12-0.59,0.06-1.21-0.17-1.76c-0.23-0.56-0.62-1.03-1.12-1.37
	c-0.5-0.34-1.09-0.51-1.69-0.51c-0.81,0-1.58,0.32-2.16,0.89C114.22,1.47,113.9,2.24,113.9,3.05z M100.68,0
	c0.6,0,1.19,0.18,1.69,0.51c0.5,0.34,0.89,0.81,1.12,1.37c0.23,0.56,0.29,1.17,0.17,1.76c-0.12,0.59-0.41,1.14-0.83,1.56
	c-0.43,0.43-0.97,0.72-1.56,0.83c-0.59,0.12-1.21,0.06-1.76-0.17c-0.56-0.23-1.03-0.62-1.37-1.12c-0.34-0.5-0.51-1.09-0.51-1.69
	c0-0.81,0.32-1.59,0.89-2.16C99.09,0.32,99.87,0,100.68,0z M84.41,0c0.6,0,1.19,0.18,1.69,0.51c0.5,0.34,0.89,0.81,1.12,1.37
	c0.23,0.56,0.29,1.17,0.17,1.76s-0.41,1.14-0.83,1.56C86.14,5.63,85.59,5.93,85,6.04c-0.59,0.12-1.21,0.06-1.76-0.17
	c-0.56-0.23-1.03-0.62-1.37-1.12c-0.34-0.5-0.51-1.09-0.51-1.69c0-0.81,0.32-1.59,0.89-2.16C82.82,0.32,83.6,0,84.41,0z M68.14,0
	c0.6,0,1.19,0.18,1.69,0.51c0.5,0.34,0.89,0.81,1.12,1.37c0.23,0.56,0.29,1.17,0.17,1.76s-0.41,1.14-0.83,1.56
	c-0.43,0.43-0.97,0.72-1.56,0.83c-0.59,0.12-1.21,0.06-1.76-0.17c-0.56-0.23-1.03-0.62-1.37-1.12s-0.51-1.09-0.51-1.69
	c0-0.81,0.32-1.59,0.89-2.16C66.55,0.32,67.33,0,68.14,0z M51.86,0c0.6,0,1.19,0.18,1.69,0.51c0.5,0.34,0.89,0.81,1.12,1.37
	s0.29,1.17,0.17,1.76c-0.12,0.59-0.41,1.14-0.83,1.56c-0.43,0.43-0.97,0.72-1.56,0.83c-0.59,0.12-1.21,0.06-1.76-0.17
	c-0.56-0.23-1.03-0.62-1.37-1.12c-0.34-0.5-0.51-1.09-0.51-1.69c0-0.81,0.32-1.59,0.89-2.16C50.28,0.32,51.06,0,51.86,0z M35.59,0
	c0.6,0,1.19,0.18,1.69,0.51c0.5,0.34,0.89,0.81,1.12,1.37s0.29,1.17,0.17,1.76c-0.12,0.59-0.41,1.14-0.83,1.56s-0.97,0.72-1.56,0.83
	c-0.59,0.12-1.21,0.06-1.76-0.17c-0.56-0.23-1.03-0.62-1.37-1.12c-0.34-0.5-0.51-1.09-0.51-1.69c0-0.81,0.32-1.59,0.89-2.16
	C34.01,0.32,34.78,0,35.59,0z M19.32,0c0.6,0,1.19,0.18,1.69,0.51c0.5,0.34,0.89,0.81,1.12,1.37c0.23,0.56,0.29,1.17,0.17,1.76
	c-0.12,0.59-0.41,1.14-0.84,1.56c-0.43,0.43-0.97,0.72-1.56,0.83c-0.59,0.12-1.21,0.06-1.76-0.17c-0.56-0.23-1.03-0.62-1.37-1.12
	c-0.34-0.5-0.51-1.09-0.51-1.69c0-0.81,0.32-1.59,0.89-2.16C17.74,0.32,18.51,0,19.32,0z M3.05,0c0.6,0,1.19,0.18,1.69,0.51
	c0.5,0.34,0.89,0.81,1.12,1.37C6.1,2.44,6.16,3.05,6.04,3.65C5.93,4.24,5.63,4.78,5.21,5.21C4.78,5.63,4.24,5.93,3.65,6.04
	C3.05,6.16,2.44,6.1,1.88,5.87C1.33,5.64,0.85,5.25,0.51,4.75C0.18,4.24,0,3.65,0,3.05c0-0.81,0.32-1.59,0.89-2.16
	C1.47,0.32,2.24,0,3.05,0z M116.95,16.27c0.6,0,1.19,0.18,1.69,0.51c0.5,0.34,0.89,0.81,1.12,1.37c0.23,0.56,0.29,1.17,0.17,1.76
	c-0.12,0.59-0.41,1.14-0.83,1.56c-0.43,0.43-0.97,0.72-1.56,0.84c-0.59,0.12-1.21,0.06-1.76-0.17c-0.56-0.23-1.03-0.62-1.37-1.12
	c-0.33-0.5-0.51-1.09-0.51-1.69c0-0.81,0.32-1.59,0.89-2.16C115.36,16.59,116.14,16.27,116.95,16.27z M100.68,16.27
	c0.6,0,1.19,0.18,1.69,0.51c0.5,0.34,0.89,0.81,1.12,1.37c0.23,0.56,0.29,1.17,0.17,1.76c-0.12,0.59-0.41,1.14-0.83,1.56
	c-0.43,0.43-0.97,0.72-1.56,0.84c-0.59,0.12-1.21,0.06-1.76-0.17c-0.56-0.23-1.03-0.62-1.37-1.12c-0.34-0.5-0.51-1.09-0.51-1.69
	c0-0.81,0.32-1.59,0.89-2.16C99.09,16.59,99.87,16.27,100.68,16.27z M84.41,16.27c0.6,0,1.19,0.18,1.69,0.51
	c0.5,0.34,0.89,0.81,1.12,1.37c0.23,0.56,0.29,1.17,0.17,1.76s-0.41,1.14-0.83,1.56c-0.43,0.43-0.97,0.72-1.56,0.84
	c-0.59,0.12-1.21,0.06-1.76-0.17c-0.56-0.23-1.03-0.62-1.37-1.12c-0.34-0.5-0.51-1.09-0.51-1.69c0-0.81,0.32-1.59,0.89-2.16
	C82.82,16.59,83.6,16.27,84.41,16.27z M68.14,16.27c0.6,0,1.19,0.18,1.69,0.51c0.5,0.34,0.89,0.81,1.12,1.37
	c0.23,0.56,0.29,1.17,0.17,1.76s-0.41,1.14-0.83,1.56c-0.43,0.43-0.97,0.72-1.56,0.84c-0.59,0.12-1.21,0.06-1.76-0.17
	c-0.56-0.23-1.03-0.62-1.37-1.12s-0.51-1.09-0.51-1.69c0-0.81,0.32-1.59,0.89-2.16C66.55,16.59,67.33,16.27,68.14,16.27z
	 M51.86,16.27c0.6,0,1.19,0.18,1.69,0.51c0.5,0.34,0.89,0.81,1.12,1.37c0.23,0.56,0.29,1.17,0.17,1.76
	c-0.12,0.59-0.41,1.14-0.83,1.56c-0.43,0.43-0.97,0.72-1.56,0.84c-0.59,0.12-1.21,0.06-1.76-0.17c-0.56-0.23-1.03-0.62-1.37-1.12
	c-0.34-0.5-0.51-1.09-0.51-1.69c0-0.81,0.32-1.59,0.89-2.16C50.28,16.59,51.06,16.27,51.86,16.27z M35.59,16.27
	c0.6,0,1.19,0.18,1.69,0.51c0.5,0.34,0.89,0.81,1.12,1.37c0.23,0.56,0.29,1.17,0.17,1.76c-0.12,0.59-0.41,1.14-0.83,1.56
	c-0.43,0.43-0.97,0.72-1.56,0.84c-0.59,0.12-1.21,0.06-1.76-0.17c-0.56-0.23-1.03-0.62-1.37-1.12c-0.34-0.5-0.51-1.09-0.51-1.69
	c0-0.81,0.32-1.59,0.89-2.16C34.01,16.59,34.78,16.27,35.59,16.27z M19.32,16.27c0.6,0,1.19,0.18,1.69,0.51
	c0.5,0.34,0.89,0.81,1.12,1.37c0.23,0.56,0.29,1.17,0.17,1.76c-0.12,0.59-0.41,1.14-0.84,1.56c-0.43,0.43-0.97,0.72-1.56,0.84
	c-0.59,0.12-1.21,0.06-1.76-0.17c-0.56-0.23-1.03-0.62-1.37-1.12c-0.34-0.5-0.51-1.09-0.51-1.69c0-0.81,0.32-1.59,0.89-2.16
	C17.74,16.59,18.51,16.27,19.32,16.27z M3.05,16.27c0.6,0,1.19,0.18,1.69,0.51c0.5,0.34,0.89,0.81,1.12,1.37
	c0.23,0.56,0.29,1.17,0.17,1.76c-0.12,0.59-0.41,1.14-0.83,1.56c-0.43,0.43-0.97,0.72-1.56,0.84c-0.59,0.12-1.21,0.06-1.76-0.17
	c-0.56-0.23-1.03-0.62-1.37-1.12C0.18,20.52,0,19.93,0,19.32c0-0.81,0.32-1.59,0.89-2.16C1.47,16.59,2.24,16.27,3.05,16.27z
	 M116.95,32.54c0.6,0,1.19,0.18,1.69,0.51c0.5,0.34,0.89,0.81,1.12,1.37c0.23,0.56,0.29,1.17,0.17,1.76
	c-0.12,0.59-0.41,1.14-0.83,1.56c-0.43,0.43-0.97,0.72-1.56,0.83c-0.59,0.12-1.21,0.06-1.76-0.17c-0.56-0.23-1.03-0.62-1.37-1.12
	c-0.33-0.5-0.51-1.09-0.51-1.69c0-0.81,0.32-1.59,0.89-2.16C115.36,32.86,116.14,32.54,116.95,32.54z M100.68,32.54
	c0.6,0,1.19,0.18,1.69,0.51c0.5,0.34,0.89,0.81,1.12,1.37c0.23,0.56,0.29,1.17,0.17,1.76c-0.12,0.59-0.41,1.14-0.83,1.56
	c-0.43,0.43-0.97,0.72-1.56,0.83c-0.59,0.12-1.21,0.06-1.76-0.17c-0.56-0.23-1.03-0.62-1.37-1.12c-0.34-0.5-0.51-1.09-0.51-1.69
	c0-0.81,0.32-1.59,0.89-2.16C99.09,32.86,99.87,32.54,100.68,32.54z M84.41,32.54c0.6,0,1.19,0.18,1.69,0.51
	c0.5,0.34,0.89,0.81,1.12,1.37c0.23,0.56,0.29,1.17,0.17,1.76s-0.41,1.14-0.83,1.56c-0.43,0.43-0.97,0.72-1.56,0.83
	c-0.59,0.12-1.21,0.06-1.76-0.17c-0.56-0.23-1.03-0.62-1.37-1.12c-0.34-0.5-0.51-1.09-0.51-1.69c0-0.81,0.32-1.59,0.89-2.16
	C82.82,32.86,83.6,32.54,84.41,32.54z M68.14,32.54c0.6,0,1.19,0.18,1.69,0.51c0.5,0.34,0.89,0.81,1.12,1.37
	c0.23,0.56,0.29,1.17,0.17,1.76s-0.41,1.14-0.83,1.56c-0.43,0.43-0.97,0.72-1.56,0.83c-0.59,0.12-1.21,0.06-1.76-0.17
	c-0.56-0.23-1.03-0.62-1.37-1.12s-0.51-1.09-0.51-1.69c0-0.81,0.32-1.59,0.89-2.16C66.55,32.86,67.33,32.54,68.14,32.54z
	 M51.86,32.54c0.6,0,1.19,0.18,1.69,0.51c0.5,0.34,0.89,0.81,1.12,1.37c0.23,0.56,0.29,1.17,0.17,1.76
	c-0.12,0.59-0.41,1.14-0.83,1.56c-0.43,0.43-0.97,0.72-1.56,0.83c-0.59,0.12-1.21,0.06-1.76-0.17s-1.03-0.62-1.37-1.12
	c-0.34-0.5-0.51-1.09-0.51-1.69c0-0.81,0.32-1.59,0.89-2.16C50.28,32.86,51.06,32.54,51.86,32.54z M35.59,32.54
	c0.6,0,1.19,0.18,1.69,0.51c0.5,0.34,0.89,0.81,1.12,1.37c0.23,0.56,0.29,1.17,0.17,1.76c-0.12,0.59-0.41,1.14-0.83,1.56
	s-0.97,0.72-1.56,0.83c-0.59,0.12-1.21,0.06-1.76-0.17c-0.56-0.23-1.03-0.62-1.37-1.12c-0.34-0.5-0.51-1.09-0.51-1.69
	c0-0.81,0.32-1.59,0.89-2.16C34.01,32.86,34.78,32.54,35.59,32.54z M19.32,32.54c0.6,0,1.19,0.18,1.69,0.51
	c0.5,0.34,0.89,0.81,1.12,1.37c0.23,0.56,0.29,1.17,0.17,1.76c-0.12,0.59-0.41,1.14-0.84,1.56c-0.43,0.43-0.97,0.72-1.56,0.83
	c-0.59,0.12-1.21,0.06-1.76-0.17c-0.56-0.23-1.03-0.62-1.37-1.12c-0.34-0.5-0.51-1.09-0.51-1.69c0-0.81,0.32-1.59,0.89-2.16
	C17.74,32.86,18.51,32.54,19.32,32.54z M3.05,32.54c0.6,0,1.19,0.18,1.69,0.51c0.5,0.34,0.89,0.81,1.12,1.37
	c0.23,0.56,0.29,1.17,0.17,1.76c-0.12,0.59-0.41,1.14-0.83,1.56c-0.43,0.43-0.97,0.72-1.56,0.83c-0.59,0.12-1.21,0.06-1.76-0.17
	s-1.03-0.62-1.37-1.12C0.18,36.79,0,36.2,0,35.59c0-0.81,0.32-1.59,0.89-2.16C1.47,32.86,2.24,32.54,3.05,32.54z M116.95,48.81
	c0.6,0,1.19,0.18,1.69,0.51c0.5,0.34,0.89,0.81,1.12,1.37c0.23,0.56,0.29,1.17,0.17,1.76c-0.12,0.59-0.41,1.14-0.83,1.56
	c-0.43,0.43-0.97,0.72-1.56,0.83c-0.59,0.12-1.21,0.06-1.76-0.17c-0.56-0.23-1.03-0.62-1.37-1.12c-0.33-0.5-0.51-1.09-0.51-1.69
	c0-0.81,0.32-1.59,0.89-2.16C115.36,49.13,116.14,48.81,116.95,48.81z M100.68,48.81c0.6,0,1.19,0.18,1.69,0.51
	c0.5,0.34,0.89,0.81,1.12,1.37c0.23,0.56,0.29,1.17,0.17,1.76c-0.12,0.59-0.41,1.14-0.83,1.56c-0.43,0.43-0.97,0.72-1.56,0.83
	c-0.59,0.12-1.21,0.06-1.76-0.17c-0.56-0.23-1.03-0.62-1.37-1.12c-0.34-0.5-0.51-1.09-0.51-1.69c0-0.81,0.32-1.59,0.89-2.16
	C99.09,49.13,99.87,48.81,100.68,48.81z M84.41,48.81c0.6,0,1.19,0.18,1.69,0.51c0.5,0.34,0.89,0.81,1.12,1.37
	c0.23,0.56,0.29,1.17,0.17,1.76c-0.12,0.59-0.41,1.14-0.83,1.56c-0.43,0.43-0.97,0.72-1.56,0.83c-0.59,0.12-1.21,0.06-1.76-0.17
	c-0.56-0.23-1.03-0.62-1.37-1.12c-0.34-0.5-0.51-1.09-0.51-1.69c0-0.81,0.32-1.59,0.89-2.16C82.82,49.13,83.6,48.81,84.41,48.81z
	 M68.14,48.81c0.6,0,1.19,0.18,1.69,0.51c0.5,0.34,0.89,0.81,1.12,1.37c0.23,0.56,0.29,1.17,0.17,1.76
	c-0.12,0.59-0.41,1.14-0.83,1.56c-0.43,0.43-0.97,0.72-1.56,0.83c-0.59,0.12-1.21,0.06-1.76-0.17c-0.56-0.23-1.03-0.62-1.37-1.12
	c-0.34-0.5-0.51-1.09-0.51-1.69c0-0.81,0.32-1.59,0.89-2.16C66.55,49.13,67.33,48.81,68.14,48.81z M51.86,48.81
	c0.6,0,1.19,0.18,1.69,0.51c0.5,0.34,0.89,0.81,1.12,1.37s0.29,1.17,0.17,1.76c-0.12,0.59-0.41,1.14-0.83,1.56
	c-0.43,0.43-0.97,0.72-1.56,0.83c-0.59,0.12-1.21,0.06-1.76-0.17s-1.03-0.62-1.37-1.12c-0.34-0.5-0.51-1.09-0.51-1.69
	c0-0.81,0.32-1.59,0.89-2.16C50.28,49.13,51.06,48.81,51.86,48.81z M35.59,48.81c0.6,0,1.19,0.18,1.69,0.51
	c0.5,0.34,0.89,0.81,1.12,1.37s0.29,1.17,0.17,1.76c-0.12,0.59-0.41,1.14-0.83,1.56c-0.43,0.43-0.97,0.72-1.56,0.83
	c-0.59,0.12-1.21,0.06-1.76-0.17c-0.56-0.23-1.03-0.62-1.37-1.12c-0.34-0.5-0.51-1.09-0.51-1.69c0-0.81,0.32-1.59,0.89-2.16
	C34.01,49.13,34.78,48.81,35.59,48.81z M19.32,48.81c0.6,0,1.19,0.18,1.69,0.51c0.5,0.34,0.89,0.81,1.12,1.37
	c0.23,0.56,0.29,1.17,0.17,1.76c-0.12,0.59-0.41,1.14-0.84,1.56c-0.43,0.43-0.97,0.72-1.56,0.83c-0.59,0.12-1.21,0.06-1.76-0.17
	c-0.56-0.23-1.03-0.62-1.37-1.12c-0.34-0.5-0.51-1.09-0.51-1.69c0-0.81,0.32-1.59,0.89-2.16C17.74,49.13,18.51,48.81,19.32,48.81z
	 M3.05,48.81c0.6,0,1.19,0.18,1.69,0.51c0.5,0.34,0.89,0.81,1.12,1.37c0.23,0.56,0.29,1.17,0.17,1.76
	c-0.12,0.59-0.41,1.14-0.83,1.56c-0.43,0.43-0.97,0.72-1.56,0.83c-0.59,0.12-1.21,0.06-1.76-0.17s-1.03-0.62-1.37-1.12
	C0.18,53.06,0,52.47,0,51.86c0-0.81,0.32-1.59,0.89-2.16C1.47,49.13,2.24,48.81,3.05,48.81z M116.95,65.08
	c0.6,0,1.19,0.18,1.69,0.51c0.5,0.34,0.89,0.81,1.12,1.37c0.23,0.56,0.29,1.17,0.17,1.76c-0.12,0.59-0.41,1.14-0.83,1.56
	c-0.43,0.43-0.97,0.72-1.56,0.83c-0.59,0.12-1.21,0.06-1.76-0.17c-0.56-0.23-1.03-0.62-1.37-1.12c-0.33-0.5-0.51-1.09-0.51-1.69
	c0-0.81,0.32-1.59,0.89-2.16C115.36,65.41,116.14,65.08,116.95,65.08z M100.68,65.08c0.6,0,1.19,0.18,1.69,0.51s0.89,0.81,1.12,1.37
	c0.23,0.56,0.29,1.17,0.17,1.76c-0.12,0.59-0.41,1.14-0.83,1.56c-0.43,0.43-0.97,0.72-1.56,0.83c-0.59,0.12-1.21,0.06-1.76-0.17
	c-0.56-0.23-1.03-0.62-1.37-1.12c-0.34-0.5-0.51-1.09-0.51-1.69c0-0.81,0.32-1.59,0.89-2.16C99.09,65.41,99.87,65.08,100.68,65.08z
	 M84.41,65.08c0.6,0,1.19,0.18,1.69,0.51s0.89,0.81,1.12,1.37c0.23,0.56,0.29,1.17,0.17,1.76c-0.12,0.59-0.41,1.14-0.83,1.56
	c-0.43,0.43-0.97,0.72-1.56,0.83c-0.59,0.12-1.21,0.06-1.76-0.17c-0.56-0.23-1.03-0.62-1.37-1.12c-0.34-0.5-0.51-1.09-0.51-1.69
	c0-0.81,0.32-1.59,0.89-2.16C82.82,65.41,83.6,65.08,84.41,65.08z M68.14,65.08c0.6,0,1.19,0.18,1.69,0.51
	c0.5,0.34,0.89,0.81,1.12,1.37c0.23,0.56,0.29,1.17,0.17,1.76c-0.12,0.59-0.41,1.14-0.83,1.56c-0.43,0.43-0.97,0.72-1.56,0.83
	c-0.59,0.12-1.21,0.06-1.76-0.17c-0.56-0.23-1.03-0.62-1.37-1.12c-0.34-0.5-0.51-1.09-0.51-1.69c0-0.81,0.32-1.59,0.89-2.16
	C66.55,65.41,67.33,65.08,68.14,65.08z M51.86,65.08c0.6,0,1.19,0.18,1.69,0.51c0.5,0.34,0.89,0.81,1.12,1.37
	c0.23,0.56,0.29,1.17,0.17,1.76c-0.12,0.59-0.41,1.14-0.83,1.56c-0.43,0.43-0.97,0.72-1.56,0.83c-0.59,0.12-1.21,0.06-1.76-0.17
	c-0.56-0.23-1.03-0.62-1.37-1.12c-0.34-0.5-0.51-1.09-0.51-1.69c0-0.81,0.32-1.59,0.89-2.16C50.28,65.41,51.06,65.08,51.86,65.08z
	 M35.59,65.08c0.6,0,1.19,0.18,1.69,0.51s0.89,0.81,1.12,1.37c0.23,0.56,0.29,1.17,0.17,1.76c-0.12,0.59-0.41,1.14-0.83,1.56
	c-0.43,0.43-0.97,0.72-1.56,0.83s-1.21,0.06-1.76-0.17c-0.56-0.23-1.03-0.62-1.37-1.12c-0.34-0.5-0.51-1.09-0.51-1.69
	c0-0.81,0.32-1.59,0.89-2.16C34.01,65.41,34.78,65.08,35.59,65.08z M19.32,65.08c0.6,0,1.19,0.18,1.69,0.51s0.89,0.81,1.12,1.37
	c0.23,0.56,0.29,1.17,0.17,1.76c-0.12,0.59-0.41,1.14-0.84,1.56c-0.43,0.43-0.97,0.72-1.56,0.83s-1.21,0.06-1.76-0.17
	c-0.56-0.23-1.03-0.62-1.37-1.12c-0.34-0.5-0.51-1.09-0.51-1.69c0-0.81,0.32-1.59,0.89-2.16C17.74,65.41,18.51,65.08,19.32,65.08z
	 M3.05,65.08c0.6,0,1.19,0.18,1.69,0.51s0.89,0.81,1.12,1.37c0.23,0.56,0.29,1.17,0.17,1.76c-0.12,0.59-0.41,1.14-0.83,1.56
	c-0.43,0.43-0.97,0.72-1.56,0.83c-0.59,0.12-1.21,0.06-1.76-0.17c-0.56-0.23-1.03-0.62-1.37-1.12C0.18,69.33,0,68.74,0,68.14
	c0-0.81,0.32-1.59,0.89-2.16C1.47,65.41,2.24,65.08,3.05,65.08z M100.68,81.36c0.6,0,1.19,0.18,1.69,0.51
	c0.5,0.34,0.89,0.81,1.12,1.37c0.23,0.56,0.29,1.17,0.17,1.76c-0.12,0.59-0.41,1.14-0.83,1.56c-0.43,0.43-0.97,0.72-1.56,0.83
	c-0.59,0.12-1.21,0.06-1.76-0.17c-0.56-0.23-1.03-0.62-1.37-1.12c-0.34-0.5-0.51-1.09-0.51-1.69c0-0.81,0.32-1.59,0.89-2.16
	C99.09,81.68,99.87,81.36,100.68,81.36z M84.41,81.36c0.6,0,1.19,0.18,1.69,0.51c0.5,0.34,0.89,0.81,1.12,1.37
	c0.23,0.56,0.29,1.17,0.17,1.76c-0.12,0.59-0.41,1.14-0.83,1.56c-0.43,0.43-0.97,0.72-1.56,0.83c-0.59,0.12-1.21,0.06-1.76-0.17
	c-0.56-0.23-1.03-0.62-1.37-1.12c-0.34-0.5-0.51-1.09-0.51-1.69c0-0.81,0.32-1.59,0.89-2.16C82.82,81.68,83.6,81.36,84.41,81.36z
	 M68.14,81.36c0.6,0,1.19,0.18,1.69,0.51c0.5,0.34,0.89,0.81,1.12,1.37c0.23,0.56,0.29,1.17,0.17,1.76
	c-0.12,0.59-0.41,1.14-0.83,1.56c-0.43,0.43-0.97,0.72-1.56,0.83c-0.59,0.12-1.21,0.06-1.76-0.17c-0.56-0.23-1.03-0.62-1.37-1.12
	s-0.51-1.09-0.51-1.69c0-0.81,0.32-1.59,0.89-2.16C66.55,81.68,67.33,81.36,68.14,81.36z M51.86,81.36c0.6,0,1.19,0.18,1.69,0.51
	c0.5,0.34,0.89,0.81,1.12,1.37c0.23,0.56,0.29,1.17,0.17,1.76c-0.12,0.59-0.41,1.14-0.83,1.56c-0.43,0.43-0.97,0.72-1.56,0.83
	c-0.59,0.12-1.21,0.06-1.76-0.17c-0.56-0.23-1.03-0.62-1.37-1.12c-0.34-0.5-0.51-1.09-0.51-1.69c0-0.81,0.32-1.59,0.89-2.16
	C50.28,81.68,51.06,81.36,51.86,81.36z M35.59,81.36c0.6,0,1.19,0.18,1.69,0.51c0.5,0.34,0.89,0.81,1.12,1.37
	c0.23,0.56,0.29,1.17,0.17,1.76c-0.12,0.59-0.41,1.14-0.83,1.56c-0.43,0.43-0.97,0.72-1.56,0.83s-1.21,0.06-1.76-0.17
	c-0.56-0.23-1.03-0.62-1.37-1.12c-0.34-0.5-0.51-1.09-0.51-1.69c0-0.81,0.32-1.59,0.89-2.16C34.01,81.68,34.78,81.36,35.59,81.36z
	 M19.32,81.36c0.6,0,1.19,0.18,1.69,0.51c0.5,0.34,0.89,0.81,1.12,1.37c0.23,0.56,0.29,1.17,0.17,1.76
	c-0.12,0.59-0.41,1.14-0.84,1.56c-0.43,0.43-0.97,0.72-1.56,0.83s-1.21,0.06-1.76-0.17c-0.56-0.23-1.03-0.62-1.37-1.12
	c-0.34-0.5-0.51-1.09-0.51-1.69c0-0.81,0.32-1.59,0.89-2.16C17.74,81.68,18.51,81.36,19.32,81.36z M3.05,81.36
	c0.6,0,1.19,0.18,1.69,0.51c0.5,0.34,0.89,0.81,1.12,1.37C6.1,83.8,6.16,84.41,6.04,85c-0.12,0.59-0.41,1.14-0.83,1.56
	c-0.43,0.43-0.97,0.72-1.56,0.83c-0.59,0.12-1.21,0.06-1.76-0.17c-0.56-0.23-1.03-0.62-1.37-1.12C0.18,85.6,0,85.01,0,84.41
	c0-0.81,0.32-1.59,0.89-2.16C1.47,81.68,2.24,81.36,3.05,81.36z M84.41,97.63c0.6,0,1.19,0.18,1.69,0.51
	c0.5,0.34,0.89,0.81,1.12,1.37c0.23,0.56,0.29,1.17,0.17,1.76c-0.12,0.59-0.41,1.14-0.83,1.56c-0.43,0.43-0.97,0.72-1.56,0.83
	c-0.59,0.12-1.21,0.06-1.76-0.17c-0.56-0.23-1.03-0.62-1.37-1.12c-0.34-0.5-0.51-1.09-0.51-1.69c0-0.81,0.32-1.59,0.89-2.16
	C82.82,97.95,83.6,97.63,84.41,97.63z M68.14,97.63c0.6,0,1.19,0.18,1.69,0.51c0.5,0.34,0.89,0.81,1.12,1.37
	c0.23,0.56,0.29,1.17,0.17,1.76c-0.12,0.59-0.41,1.14-0.83,1.56c-0.43,0.43-0.97,0.72-1.56,0.83c-0.59,0.12-1.21,0.06-1.76-0.17
	c-0.56-0.23-1.03-0.62-1.37-1.12s-0.51-1.09-0.51-1.69c0-0.81,0.32-1.59,0.89-2.16C66.55,97.95,67.33,97.63,68.14,97.63z
	 M51.86,97.63c0.6,0,1.19,0.18,1.69,0.51c0.5,0.34,0.89,0.81,1.12,1.37c0.23,0.56,0.29,1.17,0.17,1.76
	c-0.12,0.59-0.41,1.14-0.83,1.56c-0.43,0.43-0.97,0.72-1.56,0.83c-0.59,0.12-1.21,0.06-1.76-0.17c-0.56-0.23-1.03-0.62-1.37-1.12
	c-0.34-0.5-0.51-1.09-0.51-1.69c0-0.81,0.32-1.59,0.89-2.16C50.28,97.95,51.06,97.63,51.86,97.63z M35.59,97.63
	c0.6,0,1.19,0.18,1.69,0.51c0.5,0.34,0.89,0.81,1.12,1.37c0.23,0.56,0.29,1.17,0.17,1.76c-0.12,0.59-0.41,1.14-0.83,1.56
	c-0.43,0.43-0.97,0.72-1.56,0.83c-0.59,0.12-1.21,0.06-1.76-0.17c-0.56-0.23-1.03-0.62-1.37-1.12c-0.34-0.5-0.51-1.09-0.51-1.69
	c0-0.81,0.32-1.59,0.89-2.16C34.01,97.95,34.78,97.63,35.59,97.63z M19.32,97.63c0.6,0,1.19,0.18,1.69,0.51
	c0.5,0.34,0.89,0.81,1.12,1.37c0.23,0.56,0.29,1.17,0.17,1.76c-0.12,0.59-0.41,1.14-0.84,1.56c-0.43,0.43-0.97,0.72-1.56,0.83
	c-0.59,0.12-1.21,0.06-1.76-0.17c-0.56-0.23-1.03-0.62-1.37-1.12c-0.34-0.5-0.51-1.09-0.51-1.69c0-0.81,0.32-1.59,0.89-2.16
	C17.74,97.95,18.51,97.63,19.32,97.63z M3.05,97.63c0.6,0,1.19,0.18,1.69,0.51c0.5,0.34,0.89,0.81,1.12,1.37
	c0.23,0.56,0.29,1.17,0.17,1.76c-0.12,0.59-0.41,1.14-0.83,1.56c-0.43,0.43-0.97,0.72-1.56,0.83c-0.59,0.12-1.21,0.06-1.76-0.17
	c-0.56-0.23-1.03-0.62-1.37-1.12c-0.34-0.5-0.51-1.09-0.51-1.69c0-0.81,0.32-1.59,0.89-2.16C1.47,97.95,2.24,97.63,3.05,97.63z
	 M68.14,113.9c0.6,0,1.19,0.18,1.69,0.51c0.5,0.34,0.89,0.81,1.12,1.37c0.23,0.56,0.29,1.17,0.17,1.76
	c-0.12,0.59-0.41,1.14-0.83,1.56c-0.43,0.43-0.97,0.72-1.56,0.83c-0.59,0.12-1.21,0.06-1.76-0.17c-0.56-0.23-1.03-0.62-1.37-1.12
	c-0.34-0.5-0.51-1.09-0.51-1.69c0-0.81,0.32-1.58,0.89-2.16C66.55,114.22,67.33,113.9,68.14,113.9z M51.86,113.9
	c0.6,0,1.19,0.18,1.69,0.51c0.5,0.34,0.89,0.81,1.12,1.37c0.23,0.56,0.29,1.17,0.17,1.76c-0.12,0.59-0.41,1.14-0.83,1.56
	c-0.43,0.43-0.97,0.72-1.56,0.83c-0.59,0.12-1.21,0.06-1.76-0.17c-0.56-0.23-1.03-0.62-1.37-1.12c-0.34-0.5-0.51-1.09-0.51-1.69
	c0-0.81,0.32-1.58,0.89-2.16C50.28,114.22,51.06,113.9,51.86,113.9z M35.59,113.9c0.6,0,1.19,0.18,1.69,0.51
	c0.5,0.34,0.89,0.81,1.12,1.37c0.23,0.56,0.29,1.17,0.17,1.76c-0.12,0.59-0.41,1.14-0.83,1.56c-0.43,0.43-0.97,0.72-1.56,0.83
	c-0.59,0.12-1.21,0.06-1.76-0.17c-0.56-0.23-1.03-0.62-1.37-1.12c-0.34-0.5-0.51-1.09-0.51-1.69c0-0.81,0.32-1.58,0.89-2.16
	C34.01,114.22,34.78,113.9,35.59,113.9z M19.32,113.9c0.6,0,1.19,0.18,1.69,0.51c0.5,0.34,0.89,0.81,1.12,1.37
	c0.23,0.56,0.29,1.17,0.17,1.76c-0.12,0.59-0.41,1.14-0.84,1.56c-0.43,0.43-0.97,0.72-1.56,0.83c-0.59,0.12-1.21,0.06-1.76-0.17
	c-0.56-0.23-1.03-0.62-1.37-1.12c-0.34-0.5-0.51-1.09-0.51-1.69c0-0.81,0.32-1.58,0.89-2.16C17.74,114.22,18.51,113.9,19.32,113.9z
	 M3.05,113.9c0.6,0,1.19,0.18,1.69,0.51c0.5,0.34,0.89,0.81,1.12,1.37c0.23,0.56,0.29,1.17,0.17,1.76
	c-0.12,0.59-0.41,1.14-0.83,1.56c-0.43,0.43-0.97,0.72-1.56,0.83c-0.59,0.12-1.21,0.06-1.76-0.17c-0.56-0.23-1.03-0.62-1.37-1.12
	c-0.34-0.5-0.51-1.09-0.51-1.69c0-0.81,0.32-1.58,0.89-2.16C1.47,114.22,2.24,113.9,3.05,113.9z"/>
</svg>
