<svg width="120" height="124" viewBox="0 0 120 124" fill="none" xmlns="http://www.w3.org/2000/svg">
<path d="M90.9981 71.6719V100.693L98.737 94.8886L106.476 100.693V77.4761M94.8675 56.194L97.4504 58.7769L102.606 53.6112M98.7369 31.0427V12.0243C98.7027 9.52612 99.6137 7.10728 101.287 5.25237C102.961 3.39747 105.274 2.24353 107.762 2.02174C109.086 1.93284 110.414 2.11721 111.664 2.5634C112.913 3.00958 114.058 3.70803 115.026 4.61533C115.994 5.52262 116.765 6.61937 117.291 7.83737C117.817 9.05537 118.087 10.3686 118.084 11.6954V23.3037H98.7369M11.6742 121.975H90.9981C93.0505 121.975 95.019 121.159 96.4703 119.708C97.9216 118.257 98.737 116.288 98.737 114.236V108.432M21.3479 100.693H2.00061V112.301C1.97763 114.328 2.5997 116.31 3.77693 117.96C4.95416 119.61 6.62559 120.844 8.54967 121.481C10.0079 121.979 11.5638 122.121 13.0881 121.896C14.6123 121.671 16.0607 121.085 17.3127 120.187C18.5647 119.289 19.5841 118.105 20.2859 116.733C20.9878 115.361 21.3519 113.842 21.3479 112.301V9.76064C21.3479 7.70815 22.1632 5.73973 23.6146 4.2884C25.0659 2.83707 27.0343 2.02173 29.0868 2.02173H108.411M44.5646 48.4552H75.5202M44.5646 61.9983H75.5202M44.5646 75.5414H75.5202M44.5646 89.0845H75.5202M49.8851 102.628H70.1997M81.3244 114.236H38.7604C38.7604 111.67 37.7412 109.21 35.9271 107.396C34.1129 105.581 31.6524 104.562 29.0868 104.562V42.651M117.194 56.1941C117.194 58.5545 114.718 60.4021 113.867 62.4626C113.015 64.5231 113.393 67.638 111.787 69.2342C110.181 70.8303 107.134 70.424 105.015 71.314C102.897 72.204 101.146 74.6417 98.7466 74.6417C96.3476 74.6417 94.5386 72.1653 92.4781 71.314C90.4176 70.4627 87.3027 70.84 85.7066 69.2342C84.1104 67.6283 84.5167 64.5811 83.6267 62.4626C82.7368 60.3441 80.299 58.5931 80.299 56.1941C80.299 53.795 82.7755 51.9861 83.6267 49.9256C84.478 47.8651 84.1007 44.7502 85.7066 43.154C87.3124 41.5579 90.3596 41.9642 92.4781 41.0742C94.5966 40.1842 96.3476 37.7465 98.7466 37.7465C101.146 37.7465 102.955 40.2229 105.015 41.0742C107.076 41.9255 110.191 41.5482 111.787 43.154C113.383 44.7598 112.977 47.807 113.867 49.9256C114.757 52.0441 117.194 53.8337 117.194 56.1941ZM110.345 56.1941C110.345 62.6052 105.148 67.8025 98.737 67.8025C92.3258 67.8025 87.1286 62.6052 87.1286 56.1941C87.1286 49.783 92.3258 44.5857 98.737 44.5857C105.148 44.5857 110.345 49.783 110.345 56.1941ZM60.0424 13.3205L62.3254 20.3533H69.716L63.7377 24.6871L66.0207 31.7198L60.0424 27.3763L54.0641 31.7198L56.3471 24.6871L50.3688 20.3533H57.7594L60.0424 13.3205ZM81.3244 20.0921L83.1527 25.7221H89.0633L84.2845 29.195L86.1032 34.8154L81.3244 31.3425L76.5456 34.8154L78.3643 29.195L73.5855 25.7221H79.4961L81.3244 20.0921ZM38.7604 19.2311L40.5887 24.8515H46.4993L41.7205 28.3243L43.5392 33.9544L38.7604 30.4719L33.9816 33.9544L35.8003 28.3243L31.0215 24.8515H36.9321L38.7604 19.2311Z" stroke="#0A307C" stroke-width="2.5" stroke-linecap="round" stroke-linejoin="round"/>
</svg>
