<?xml version="1.0" encoding="utf-8"?>
<!-- Generator: Adobe Illustrator 25.4.1, SVG Export Plug-In . SVG Version: 6.00 Build 0)  -->
<svg version="1.1" id="Layer_1" xmlns="http://www.w3.org/2000/svg" xmlns:xlink="http://www.w3.org/1999/xlink" x="0px" y="0px"
	 viewBox="0 0 26 26" enable-background="new 0 0 26 26" xml:space="preserve">
<linearGradient id="SVGID_1_" gradientUnits="userSpaceOnUse" x1="-256.8513" y1="87.8383" x2="-241.2357" y2="114.9168" gradientTransform="matrix(1 0 0 -1 262.0551 114.3622)">
	<stop  offset="0" style="stop-color:#FFDD55"/>
	<stop  offset="0.5" style="stop-color:#FB5246"/>
	<stop  offset="1" style="stop-color:#C837AB"/>
</linearGradient>
<path fill="url(#SVGID_1_)" d="M13,16.19c-4.22,0-4.24-6.39,0-6.39C17.24,9.81,17.28,16.19,13,16.19z M20.8,16.9
	c-0.21,4.48-3.61,3.99-7.8,3.99c-7.64,0-7.8-0.22-7.8-7.87c0-7.65,0.61-7.86,7.01-7.86C20.38,5.12,21.42,4.21,20.8,16.9z M17.91,13
	c0-0.97-0.29-1.93-0.83-2.74c-0.54-0.81-1.31-1.44-2.21-1.81c-0.9-0.37-1.89-0.47-2.85-0.28c-0.96,0.19-1.83,0.66-2.52,1.35
	c-0.69,0.69-1.16,1.57-1.35,2.52C7.96,13,8.06,13.99,8.44,14.89c0.37,0.9,1.01,1.67,1.82,2.21c0.81,0.54,1.77,0.83,2.74,0.82
	c0.65,0.01,1.3-0.12,1.9-0.36c0.6-0.25,1.15-0.61,1.61-1.06c0.46-0.46,0.83-1,1.08-1.6c0.25-0.6,0.38-1.24,0.38-1.89H17.91z
	 M19.21,7.88c-0.01-0.23-0.1-0.45-0.24-0.64c-0.14-0.18-0.34-0.32-0.56-0.39c-0.22-0.07-0.46-0.08-0.68-0.01
	c-0.22,0.06-0.42,0.19-0.57,0.37c-0.15,0.18-0.24,0.4-0.26,0.63c-0.02,0.23,0.03,0.46,0.14,0.67c0.11,0.2,0.28,0.37,0.49,0.47
	s0.44,0.15,0.67,0.12C18.35,9.1,18.5,9.06,18.64,9c0.14-0.07,0.26-0.16,0.37-0.27s0.18-0.25,0.23-0.39c0.05-0.14,0.07-0.3,0.06-0.45
	H19.21z M26,5.83v14.29c0.01,0.77-0.14,1.53-0.43,2.24c-0.29,0.71-0.72,1.36-1.26,1.91c-0.54,0.55-1.19,0.98-1.9,1.27
	c-0.71,0.3-1.47,0.45-2.24,0.45H5.88c-0.77,0.01-1.53-0.14-2.24-0.43c-0.71-0.29-1.36-0.72-1.91-1.26
	c-0.55-0.54-0.98-1.18-1.28-1.89C0.16,21.7,0,20.94,0,20.17V5.88c-0.01-0.77,0.14-1.53,0.43-2.24c0.29-0.71,0.72-1.36,1.26-1.9
	s1.18-0.98,1.89-1.27s1.47-0.45,2.24-0.45h14.3c0.77-0.01,1.53,0.14,2.24,0.43c0.71,0.29,1.36,0.72,1.91,1.26
	c0.55,0.54,0.98,1.18,1.28,1.89C25.85,4.3,26,5.06,26,5.83z M22.63,13c0-3.75,0.21-6.17-1.61-7.99S16.69,3.4,13,3.4
	c-3.9,0-7.67-0.35-9.1,3.31C3.35,8.22,3.44,10.19,3.44,13c-0.18,2.11-0.03,4.23,0.46,6.29c1.42,3.66,5.2,3.31,9.1,3.31
	c3.9,0,7.64,0.39,9.1-3.31C22.71,17.75,22.63,15.82,22.63,13z"/>
</svg>
