<?xml version="1.0" encoding="utf-8"?>
<!-- Generator: Adobe Illustrator 25.4.1, SVG Export Plug-In . SVG Version: 6.00 Build 0)  -->
<svg version="1.1" id="Layer_1" xmlns="http://www.w3.org/2000/svg" xmlns:xlink="http://www.w3.org/1999/xlink" x="0px" y="0px"
	 viewBox="0 0 26 26" enable-background="new 0 0 26 26" xml:space="preserve">
<path fill="#0A66C2" d="M20.18,0.01H5.88C5.11,0.01,4.35,0.15,3.63,0.44C2.92,0.73,2.27,1.16,1.73,1.7
	C1.18,2.24,0.75,2.89,0.45,3.59C0.16,4.3,0,5.06,0,5.83v14.29c-0.01,0.77,0.14,1.53,0.43,2.24c0.29,0.71,0.72,1.36,1.26,1.9
	c0.54,0.55,1.18,0.98,1.89,1.27c0.71,0.3,1.47,0.45,2.24,0.45h14.3c0.77,0.01,1.53-0.14,2.24-0.43c0.71-0.29,1.36-0.71,1.91-1.25
	c0.55-0.54,0.98-1.18,1.28-1.89c0.3-0.71,0.45-1.47,0.45-2.23V5.9c0.01-0.77-0.14-1.53-0.42-2.25c-0.29-0.71-0.72-1.36-1.26-1.91
	c-0.54-0.55-1.19-0.98-1.9-1.28C21.71,0.17,20.95,0.01,20.18,0.01z M8.31,21.48H4.8V10.16h3.51V21.48z M6.5,8.61
	C6.1,8.6,5.71,8.48,5.38,8.25C5.04,8.02,4.79,7.7,4.64,7.33C4.48,6.96,4.45,6.55,4.53,6.15C4.61,5.76,4.8,5.4,5.08,5.11
	c0.28-0.29,0.64-0.48,1.04-0.56c0.39-0.08,0.8-0.05,1.18,0.1c0.37,0.15,0.7,0.4,0.93,0.73C8.45,5.71,8.58,6.1,8.59,6.51
	C8.6,6.78,8.55,7.06,8.45,7.32S8.19,7.81,8,8.01C7.8,8.2,7.57,8.36,7.31,8.46C7.05,8.56,6.78,8.62,6.5,8.61z M21.44,21.48h-3.47
	v-5.52c0-1.3,0-2.99-1.82-2.99s-2.12,1.43-2.12,2.9v5.61h-3.51V10.16h3.38v1.55c0.34-0.58,0.83-1.05,1.42-1.38
	c0.59-0.32,1.25-0.48,1.92-0.46c3.56,0,4.21,2.35,4.21,5.39L21.44,21.48z"/>
</svg>
