<svg width="124" height="124" viewBox="0 0 124 124" fill="none" xmlns="http://www.w3.org/2000/svg">
<path d="M23.2903 77.4839H5.87097C4.84432 77.4839 3.85973 77.076 3.13378 76.3501C2.40783 75.6241 2 74.6396 2 73.6129V5.87097C2 4.84432 2.40783 3.85973 3.13378 3.13378C3.85973 2.40783 4.84432 2 5.87097 2H118.129C119.156 2 120.14 2.40783 120.866 3.13378C121.592 3.85973 122 4.84432 122 5.87097V73.6129C122 74.6396 121.592 75.6241 120.866 76.3501C120.14 77.076 119.156 77.4839 118.129 77.4839H100.71" stroke="#0A307C" stroke-width="2.5" stroke-linecap="round" stroke-linejoin="round"/>
<path d="M2 13.6128H122" stroke="#0A307C" stroke-width="2.5" stroke-linecap="round" stroke-linejoin="round"/>
<path d="M9.74193 9.74182C10.8109 9.74182 11.6774 8.87527 11.6774 7.80633C11.6774 6.7374 10.8109 5.87085 9.74193 5.87085C8.673 5.87085 7.80645 6.7374 7.80645 7.80633C7.80645 8.87527 8.673 9.74182 9.74193 9.74182Z" fill="#0A307C"/>
<path d="M17.4839 9.74182C18.5528 9.74182 19.4194 8.87527 19.4194 7.80633C19.4194 6.7374 18.5528 5.87085 17.4839 5.87085C16.4149 5.87085 15.5484 6.7374 15.5484 7.80633C15.5484 8.87527 16.4149 9.74182 17.4839 9.74182Z" fill="#0A307C"/>
<path d="M25.2258 9.74182C26.2947 9.74182 27.1613 8.87527 27.1613 7.80633C27.1613 6.7374 26.2947 5.87085 25.2258 5.87085C24.1569 5.87085 23.2903 6.7374 23.2903 7.80633C23.2903 8.87527 24.1569 9.74182 25.2258 9.74182Z" fill="#0A307C"/>
<path d="M38.7742 7.8064H92.9677" stroke="#0A307C" stroke-width="2.5" stroke-linecap="round" stroke-linejoin="round"/>
<path d="M98.7742 7.8064H116.194" stroke="#0A307C" stroke-width="2.5" stroke-linecap="round" stroke-linejoin="round"/>
<path d="M92.9678 62C94.9033 108.452 62.0001 122 62.0001 122C62.0001 122 29.0968 108.452 31.0323 62L62.0001 46.5161L92.9678 62Z" stroke="#0A307C" stroke-width="2.5" stroke-linecap="round" stroke-linejoin="round"/>
<path d="M50.3871 79.4194H73.6129V96.8388C73.6129 97.8654 73.2051 98.85 72.4791 99.576C71.7532 100.302 70.7686 100.71 69.7419 100.71H54.2581C53.2314 100.71 52.2468 100.302 51.5209 99.576C50.7949 98.85 50.3871 97.8654 50.3871 96.8388V79.4194Z" stroke="#0A307C" stroke-width="2.5" stroke-linecap="round" stroke-linejoin="round"/>
<path d="M54.2581 79.4192V73.6128C54.2581 71.5595 55.0737 69.5903 56.5256 68.1384C57.9775 66.6865 59.9467 65.8708 62 65.8708C64.0533 65.8708 66.0225 66.6865 67.4744 68.1384C68.9263 69.5903 69.7419 71.5595 69.7419 73.6128V79.4192" stroke="#0A307C" stroke-width="2.5" stroke-linecap="round" stroke-linejoin="round"/>
<path d="M65.871 79.4194V73.6129C65.871 72.5863 65.4631 71.6017 64.7372 70.8757C64.0112 70.1498 63.0266 69.7419 62 69.7419C60.9734 69.7419 59.9888 70.1498 59.2628 70.8757C58.5369 71.6017 58.129 72.5863 58.129 73.6129V79.4194" stroke="#0A307C" stroke-width="2.5" stroke-linecap="round" stroke-linejoin="round"/>
<path d="M62 89.0968C63.0689 89.0968 63.9355 88.2303 63.9355 87.1613C63.9355 86.0924 63.0689 85.2258 62 85.2258C60.9311 85.2258 60.0645 86.0924 60.0645 87.1613C60.0645 88.2303 60.9311 89.0968 62 89.0968Z" stroke="#0A307C" stroke-width="2.5" stroke-linecap="round" stroke-linejoin="round"/>
<path d="M62 92.9676V89.0967" stroke="#0A307C" stroke-width="2.5" stroke-linecap="round" stroke-linejoin="round"/>
<path d="M34.6613 36.1129C34.2134 37.8823 33.2209 39.4663 31.8241 40.6411C30.4272 41.8159 28.6966 42.5222 26.8766 42.6603C25.0566 42.7983 23.2392 42.3611 21.6812 41.4104C20.1231 40.4597 18.9031 39.0435 18.1935 37.3619C17.4838 35.6802 17.3204 33.8182 17.7263 32.0387C18.1322 30.2592 19.0869 28.6521 20.4555 27.4446C21.8242 26.237 23.5376 25.4899 25.3538 25.3088C27.1701 25.1278 28.9973 25.5219 30.5774 26.4354" stroke="#0A307C" stroke-width="2.5" stroke-linecap="round" stroke-linejoin="round"/>
<path d="M23.2903 32.9676L27.1613 36.8386L34.9032 29.0967" stroke="#0A307C" stroke-width="2.5" stroke-linecap="round" stroke-linejoin="round"/>
<path d="M44.5806 31.0322H100.71" stroke="#0A307C" stroke-width="2.5" stroke-linecap="round" stroke-linejoin="round"/>
<path d="M44.5806 38.7742H100.71" stroke="#0A307C" stroke-width="2.5" stroke-linecap="round" stroke-linejoin="round"/>
<path d="M62 56.1935C63.0689 56.1935 63.9355 55.3269 63.9355 54.258C63.9355 53.1891 63.0689 52.3225 62 52.3225C60.9311 52.3225 60.0645 53.1891 60.0645 54.258C60.0645 55.3269 60.9311 56.1935 62 56.1935Z" fill="#0A307C"/>
<path d="M62 116.193C63.0689 116.193 63.9355 115.327 63.9355 114.258C63.9355 113.189 63.0689 112.323 62 112.323C60.9311 112.323 60.0645 113.189 60.0645 114.258C60.0645 115.327 60.9311 116.193 62 116.193Z" fill="#0A307C"/>
<path d="M38.7742 67.8065C39.8431 67.8065 40.7097 66.94 40.7097 65.871C40.7097 64.8021 39.8431 63.9355 38.7742 63.9355C37.7053 63.9355 36.8387 64.8021 36.8387 65.871C36.8387 66.94 37.7053 67.8065 38.7742 67.8065Z" fill="#0A307C"/>
<path d="M85.2258 67.8065C86.2947 67.8065 87.1613 66.94 87.1613 65.871C87.1613 64.8021 86.2947 63.9355 85.2258 63.9355C84.1569 63.9355 83.2903 64.8021 83.2903 65.871C83.2903 66.94 84.1569 67.8065 85.2258 67.8065Z" fill="#0A307C"/>
</svg>
