<?xml version="1.0" encoding="utf-8"?>
<!-- Generator: Adobe Illustrator 25.4.1, SVG Export Plug-In . SVG Version: 6.00 Build 0)  -->
<svg version="1.1" id="Layer_1" xmlns="http://www.w3.org/2000/svg" xmlns:xlink="http://www.w3.org/1999/xlink" x="0px" y="0px"
	 viewBox="0 0 26 26" enable-background="new 0 0 26 26" xml:space="preserve">
<path fill="#1DA1F2" d="M20.8,0H5.2C3.82,0,2.5,0.55,1.52,1.52C0.55,2.5,0,3.82,0,5.2v15.6c0,1.38,0.55,2.7,1.52,3.68
	C2.5,25.45,3.82,26,5.2,26h15.6c1.38,0,2.7-0.55,3.68-1.52C25.45,23.5,26,22.18,26,20.8V5.2c0-1.38-0.55-2.7-1.52-3.68
	C23.5,0.55,22.18,0,20.8,0L20.8,0z M19.36,9.74c0,0.14,0,0.29,0,0.43c-0.02,1.66-0.48,3.28-1.33,4.71
	c-0.85,1.42-2.07,2.59-3.53,3.39c-1.46,0.79-3.1,1.19-4.76,1.14c-1.66-0.05-3.27-0.54-4.68-1.43c0.26,0.01,0.52,0.01,0.78,0
	c1.47,0,2.91-0.49,4.07-1.39c-0.68-0.02-1.35-0.25-1.89-0.66c-0.55-0.41-0.96-0.98-1.17-1.63c0.21,0.02,0.42,0.02,0.62,0
	C7.73,14.32,8,14.33,8.27,14.3c-0.74-0.16-1.4-0.56-1.87-1.15c-0.47-0.59-0.73-1.32-0.73-2.07c0.45,0.25,0.96,0.39,1.48,0.4
	c-0.45-0.3-0.82-0.7-1.08-1.17c-0.26-0.47-0.4-1-0.4-1.54c0-0.58,0.16-1.16,0.44-1.66c0.82,1.01,1.85,1.84,3.01,2.44
	c1.16,0.59,2.44,0.93,3.75,1c-0.05-0.25-0.07-0.5-0.06-0.75c0-0.66,0.2-1.3,0.57-1.84c0.37-0.54,0.89-0.96,1.51-1.2
	c0.61-0.24,1.28-0.29,1.92-0.15c0.64,0.14,1.22,0.48,1.67,0.96c0.73-0.15,1.43-0.42,2.08-0.79c-0.25,0.76-0.76,1.4-1.44,1.81
	C19.76,8.48,20.4,8.3,21,8.03C20.56,8.7,20,9.28,19.36,9.74z"/>
</svg>
